<?xml version="1.0" encoding="utf-8"?>
<!-- Generator: Adobe Illustrator 24.0.1, SVG Export Plug-In . SVG Version: 6.00 Build 0)  -->
<svg version="1.1" id="Layer_2" xmlns="http://www.w3.org/2000/svg" xmlns:xlink="http://www.w3.org/1999/xlink" x="0px" y="0px"
	 viewBox="0 0 180 180" style="enable-background:new 0 0 180 180;" xml:space="preserve">
<style type="text/css">
	.st0{fill:#C66014;}
	.st1{fill:#CE9976;}
	.st2{fill:#17C5CE;}
	.st3{fill:#B2510F;}
	.st4{fill:#DB6F26;}
	.st5{fill:#E2B99A;}
	.st6{fill:#FFFFFF;}
	.st7{fill:#D8AA8B;}
</style>
<g>
	<rect x="56.6" y="102.1" class="st0" width="70.2" height="53"/>
	<path class="st1" d="M145,172.5c0-17.5-14.2-31.6-31.6-31.6h-0.6c-4.6,0-8.2-3.7-8.2-8.2v-31.2H75.8v31.2c0,4.6-3.7,8.2-8.2,8.2
		c-17.5,0-31.6,14.2-31.6,31.6v7.1h109V172.5z"/>
	<g>
		<path class="st2" d="M67.6,140.9c-17.5,0-31.6,14.2-31.6,31.6v7.1h44.6l-12.7-38.8C67.7,140.9,67.6,140.9,67.6,140.9z"/>
		<path class="st2" d="M145,172.5c0-17.5-14.2-31.6-31.6-31.6h-0.5l-11.4,38.8H145V172.5z"/>
		<polygon class="st2" points="112.8,140.9 154.3,140.9 145,179.6 		"/>
		<polygon class="st2" points="67.7,140.9 26.7,140.9 36,179.6 		"/>
	</g>
	<path class="st3" d="M52,57.4c0,0-5.1-3.8-5.8-9.4c-0.6-5.6,10.4-5.7,10.4-5.7l3.1,15.1H52z"/>
	<path class="st3" d="M126.5,57.4c0,0,5.1-3.8,5.8-9.4c0.6-5.6-10.4-5.7-10.4-5.7l-3.1,15.1H126.5z"/>
	<path class="st4" d="M89.2,39.7c0,0,8.7-10.3,24.1-6c15.5,4.3,15.5,25.5,15.5,25.5l-3,32.1L86.9,65.2L89.2,39.7z"/>
	<path class="st4" d="M90.6,39.7c0,0-8.7-10.3-24.1-6C51,37.9,51,59.2,51,59.2l3,32.1l38.9-26.1L90.6,39.7z"/>
	<path class="st5" d="M52.7,53.5v45.5c0,6.5,3.5,12.6,9.1,15.8l22.6,13c3,1.7,6.7,1.7,9.7,0l22.6-13c5.7-3.3,9.1-9.3,9.1-15.8V53.5
		H52.7z"/>
	<g>
		<path d="M110.2,82.2c-2.8,0.3-7,3.1-8.1,4.5l12.7-1.4C114.1,82.5,113,81.9,110.2,82.2z"/>
		<path d="M69.2,82.2c3,0.3,7.5,3.1,8.8,4.5l-13.7-1.4C65,82.5,66.1,81.9,69.2,82.2z"/>
		<path class="st0" d="M99.9,77.2c0,0,0.3-0.2,1-0.5c0.6-0.3,1.5-0.7,2.6-1.2c2.1-0.9,5.2-2,8.3-2.1c1.6-0.1,3.2,0.2,4.6,0.6
			c1.4,0.5,2.6,1.2,3.4,2c0.9,0.8,1.4,1.6,1.7,2.2c0.3,0.6,0.4,1,0.4,1s-0.2-0.4-0.5-0.9c-0.4-0.6-1-1.3-1.9-2
			c-0.9-0.7-2.1-1.3-3.4-1.7c-1.4-0.3-2.9-0.4-4.3-0.3c-3,0.3-5.7,1.6-7.7,2.7c-2,1.1-3.3,1.9-3.3,1.9c-0.5,0.3-1.1,0.1-1.4-0.3
			c-0.3-0.5-0.1-1.1,0.3-1.4C99.8,77.3,99.8,77.2,99.9,77.2L99.9,77.2z"/>
		<path class="st0" d="M77.7,79c0,0-1.3-0.8-3.3-1.9c-2-1.1-4.7-2.3-7.7-2.7c-1.5-0.2-3-0.1-4.3,0.3c-1.3,0.3-2.5,1-3.4,1.7
			c-0.9,0.7-1.5,1.4-1.9,2c-0.4,0.6-0.5,0.9-0.5,0.9s0.1-0.4,0.4-1c0.3-0.6,0.9-1.4,1.7-2.2c0.9-0.8,2-1.5,3.4-2
			c1.4-0.5,3-0.7,4.6-0.6c3.2,0.1,6.2,1.2,8.3,2.1c1.1,0.5,1.9,0.9,2.6,1.2c0.6,0.3,1,0.5,1,0.5l0,0c0.5,0.2,0.7,0.8,0.5,1.3
			C78.9,79.1,78.3,79.3,77.7,79C77.7,79,77.7,79,77.7,79z"/>
	</g>
	<path class="st6" d="M75.8,102.1c1.7,4.9,7,8.4,13.4,8.4s11.8-3.6,13.4-8.4H75.8z"/>
	<g>
		<path class="st7" d="M116.6,102c-1.9,2-5.5,2.6-8.8,1.2c-3.9-1.6-6.2-5.4-5.1-8.5c1,2.4,3.5,4.8,6.9,6.2
			C112,101.9,114.5,102.2,116.6,102z"/>
		<path class="st7" d="M61.9,102c1.9,2,5.5,2.6,8.8,1.2c3.9-1.6,6.2-5.4,5.1-8.5c-1,2.4-3.5,4.8-6.9,6.2
			C66.5,101.9,64,102.2,61.9,102z"/>
	</g>
	<g>
		<path class="st4" d="M140.1,151.9L140.1,151.9c-3-4-3.4-9.6-1-13.3l0,0c2.3-3.6,1.9-8.7-0.9-12.1c-2.7-3.3-3-7.9-0.8-11l0,0
			c2.1-3,1.8-7.3-0.8-10.1l0,0c-2.5-2.8-2.7-6.7-0.7-9.3l0,0c2-2.5,1.7-6.2-0.7-8.6l0,0c-2.3-2.4-2.5-5.7-0.6-7.9l0,0
			c1.9-2.2,1.6-5.3-0.6-7.4l0,0c-2.1-2-2.3-4.9-0.5-6.9l0,0c1.7-1.9,1.5-4.6-0.5-6.4l0,0c-1.1-1-1.7-2.3-1.6-3.5
			c-0.2,0.1-0.4,0.3-0.6,0.4c-2.4,1.9-4.3,4.5-7,6c-1.2,0.7-2.5,1.1-3.9,0.9c-0.1,0-0.2,0-0.3,0c-0.1,0.9-0.6,1.9-1.3,2.7l0,0
			c-1.9,1.9-2,4.8,0,6.9l0,0c2,2.1,2,5.2,0,7.4l0,0c-2.1,2.2-2.1,5.6,0,7.9l0,0c2.1,2.4,2.2,6,0,8.6l0,0c-2.2,2.6-2.3,6.5,0,9.3l0,0
			c2.3,2.8,2.3,7.1,0,10.1l0,0c-2.4,3.1-2.5,7.7,0,11l0,0c2.5,3.4,2.6,8.5,0,12.1l0,0c-2.7,3.7-2.7,9.3,0,13.3l0,0
			c2.8,4.1,2.8,10.3,0,14.7l0,0c-2.3,3.6-2.9,8.6-1.5,12.9h24.2c-1.7-4.4-1.5-9.3,0.5-12.9l0,0C143.8,162.2,143.3,156,140.1,151.9z"
			/>
	</g>
	<g>
		<path class="st4" d="M39.7,151.9L39.7,151.9c3-4,3.4-9.6,1-13.3l0,0c-2.3-3.6-1.9-8.7,0.9-12.1c2.7-3.3,3-7.9,0.8-11l0,0
			c-2.1-3-1.8-7.3,0.8-10.1l0,0c2.5-2.8,2.7-6.7,0.7-9.3l0,0c-2-2.5-1.7-6.2,0.7-8.6l0,0c2.3-2.4,2.5-5.7,0.6-7.9l0,0
			c-1.9-2.2-1.6-5.3,0.6-7.4l0,0c2.1-2,2.3-4.9,0.5-6.9l0,0c-1.7-1.9-1.5-4.6,0.5-6.4l0,0c1.1-1,1.7-2.3,1.6-3.5
			c0.2,0.1,0.4,0.3,0.6,0.4c2.4,1.9,4.3,4.5,7,6c1.2,0.7,2.5,1.1,3.9,0.9c0.1,0,0.2,0,0.3,0c0.1,0.9,0.6,1.9,1.3,2.7l0,0
			c1.9,1.9,2,4.8,0,6.9l0,0c-2,2.1-2,5.2,0,7.4l0,0c2.1,2.2,2.1,5.6,0,7.9l0,0c-2.1,2.4-2.2,6,0,8.6l0,0c2.2,2.6,2.3,6.5,0,9.3l0,0
			c-2.3,2.8-2.3,7.1,0,10.1l0,0c2.4,3.1,2.5,7.7,0,11l0,0c-2.5,3.4-2.6,8.5,0,12.1l0,0c2.7,3.7,2.7,9.3,0,13.3l0,0
			c-2.8,4.1-2.8,10.3,0,14.7l0,0c2.3,3.6,2.9,8.6,1.5,12.9H39.1c1.7-4.4,1.5-9.3-0.5-12.9l0,0C36,162.2,36.5,156,39.7,151.9z"/>
	</g>
	<g>
		<g>
			<path class="st0" d="M107.1,39.4c5,1.7,9.2,5.9,13.7,8.9c4.6,3,8,4.8,11.4-0.3c0,7.1,1.8,16.9-4.9,19.6
				c-2.9,1.2-9.1,0.2-11.8-1.4c-7.1-4.1-9.7-14.4-18.7-12.7c-1.7,0.3-5.7,2.4-7.6,4.9c-0.1-3.8-0.5-9.1,1-12.5
				C93.2,39.5,101.3,37.4,107.1,39.4z"/>
		</g>
		<g>
			<path class="st0" d="M71.3,39.4c-5,1.7-9.2,5.9-13.7,8.9c-4.6,3-8,4.8-11.4-0.3c0,7.1-1.8,16.9,4.9,19.6
				c2.9,1.2,9.1,0.2,11.8-1.4c7.1-4.1,9.7-14.4,18.7-12.7c1.7,0.3,5.7,2.4,7.6,4.9c0.1-3.8,0.5-9.1-1-12.5
				C85.3,39.5,77.2,37.4,71.3,39.4z"/>
		</g>
	</g>
</g>
</svg>
