<?xml version="1.0" encoding="utf-8"?>
<!-- Generator: Adobe Illustrator 24.0.1, SVG Export Plug-In . SVG Version: 6.00 Build 0)  -->
<svg version="1.1" xmlns="http://www.w3.org/2000/svg" xmlns:xlink="http://www.w3.org/1999/xlink" x="0px" y="0px" width="180px"
	 height="180px" viewBox="0 0 180 180" style="enable-background:new 0 0 180 180;" xml:space="preserve">
<style type="text/css">
	.st0{fill:#FFFFFF;}
</style>
<g id="Layer_1">
	<path d="M56.3,68.2C56.1,69.8,56,71.4,56,73v9.3c-2.5,0.3-4.4,2.4-4.4,5v9.3c0,2.6,1.9,4.7,4.4,5v1.8c0,8.9,4.9,16.9,12.3,20.3
		l4,1.9v8.2v3H59.5c-10.4,0-18.8,8.4-18.8,18.8v23.7h23.7c0,0,0,0,0,0h22c0,0,0,0,0,0h19.9h0h16.5h16.4v-23.7
		c0-10.4-8.4-18.8-18.8-18.8h-13v-3h-0.1v-8.5l4.3-1.8c7.8-3.2,12.9-11.4,12.9-20.6v-1.4c2.1-0.6,3.6-2.5,3.6-4.9v-9.3
		c0-2.3-1.5-4.2-3.6-4.9v-5.5v-4c0-6.1-1.6-11.9-4.4-16.7c-5-8.7-13.9-14.5-24-14.5H84.4C70.1,41.8,58.4,53.2,56.3,68.2"/>
</g>
<g id="Layer_2">
	<polygon class="st0" points="110.9,68.5 106.2,63.7 89.7,80.2 73.3,63.7 68.5,68.5 85,84.9 68.5,101.4 73.3,106.1 89.7,89.7 
		106.2,106.1 110.9,101.4 94.5,84.9 	"/>
</g>
</svg>
