<?xml version="1.0" encoding="utf-8"?>
<!-- Generator: Adobe Illustrator 24.0.1, SVG Export Plug-In . SVG Version: 6.00 Build 0)  -->
<svg version="1.1" id="Layer_1" xmlns="http://www.w3.org/2000/svg" xmlns:xlink="http://www.w3.org/1999/xlink" x="0px" y="0px"
	 width="480px" height="480px" viewBox="0 0 480 480" style="enable-background:new 0 0 480 480;" xml:space="preserve">
<style type="text/css">
	.st0{fill:#D75A4A;}
	.st1{fill:#F27979;}
	.st2{fill:#231F20;}
</style>
<path class="st0" d="M320,184c0-22.1-17.9-40-40-40s-40,17.9-40,40c0-22.1-17.9-40-40-40s-40,17.9-40,40c0,48,80,88,80,88
	S320,232,320,184z"/>
<path class="st1" d="M440,56H40C22.3,56,8,70.3,8,88v240c0,17.7,14.3,32,32,32h304l32,64l32-64h32c17.7,0,32-14.3,32-32V88
	C472,70.3,457.7,56,440,56z M240,272c0,0-80-40-80-88c0-22.1,17.9-40,40-40s40,17.9,40,40c0-22.1,17.9-40,40-40s40,17.9,40,40
	C320,232,240,272,240,272z"/>
<g>
	<path class="st2" d="M440,112H280c-4.4,0-8,3.6-8,8s3.6,8,8,8h160c4.4,0,8-3.6,8-8S444.4,112,440,112z"/>
	<path class="st2" d="M440,152h-96c-4.4,0-8,3.6-8,8s3.6,8,8,8h96c4.4,0,8-3.6,8-8S444.4,152,440,152z"/>
	<path class="st2" d="M440,192h-88c-4.4,0-8,3.6-8,8s3.6,8,8,8h88c4.4,0,8-3.6,8-8S444.4,192,440,192z"/>
	<path class="st2" d="M440,232H328c-4.4,0-8,3.6-8,8s3.6,8,8,8h112c4.4,0,8-3.6,8-8S444.4,232,440,232z"/>
	<path class="st2" d="M440,272H288c-4.4,0-8,3.6-8,8s3.6,8,8,8h152c4.4,0,8-3.6,8-8S444.4,272,440,272z"/>
	<path class="st2" d="M440,312H272c-4.4,0-8,3.6-8,8s3.6,8,8,8h168c4.4,0,8-3.6,8-8S444.4,312,440,312z"/>
	<path class="st2" d="M40,128h160c4.4,0,8-3.6,8-8s-3.6-8-8-8H40c-4.4,0-8,3.6-8,8S35.6,128,40,128z"/>
	<path class="st2" d="M40,168h96c4.4,0,8-3.6,8-8s-3.6-8-8-8H40c-4.4,0-8,3.6-8,8S35.6,168,40,168z"/>
	<path class="st2" d="M40,208h88c4.4,0,8-3.6,8-8s-3.6-8-8-8H40c-4.4,0-8,3.6-8,8S35.6,208,40,208z"/>
	<path class="st2" d="M40,248h112c4.4,0,8-3.6,8-8s-3.6-8-8-8H40c-4.4,0-8,3.6-8,8S35.6,248,40,248z"/>
	<path class="st2" d="M40,288h152c4.4,0,8-3.6,8-8s-3.6-8-8-8H40c-4.4,0-8,3.6-8,8S35.6,288,40,288z"/>
	<path class="st2" d="M208,312H40c-4.4,0-8,3.6-8,8s3.6,8,8,8h168c4.4,0,8-3.6,8-8S212.4,312,208,312z"/>
	<path class="st2" d="M440,48H40C17.9,48,0,65.9,0,88v240c0,22.1,17.9,40,40,40h299.1l29.8,59.6c1.4,2.7,4.1,4.4,7.2,4.4
		s5.8-1.7,7.2-4.4l29.8-59.6H440c22.1,0,40-17.9,40-40V88C480,65.9,462.1,48,440,48z M464,328c0,13.3-10.7,24-24,24h-32
		c-3,0-5.8,1.7-7.2,4.4L376,406.1l-24.8-49.7c-1.4-2.7-4.2-4.4-7.2-4.4H40c-13.3,0-24-10.7-24-24V88c0-13.3,10.7-24,24-24h400
		c13.3,0,24,10.7,24,24V328z"/>
	<path class="st2" d="M243.6,279.2c3.4-1.8,84.4-42.9,84.4-95.2c0-21.2-13.9-39.8-34.2-45.9s-42.1,1.8-53.8,19.4
		c-11.7-17.6-33.6-25.5-53.8-19.4S152,162.8,152,184c0,52.3,81,93.4,84.4,95.2c0.1,0.1,0.2,0,0.4,0.1c1,0.5,2.1,0.7,3.2,0.7
		c1.1,0,2.2-0.3,3.2-0.8C243.3,279.2,243.5,279.2,243.6,279.2z M168,184c0-17.7,14.3-32,32-32s32,14.3,32,32c0,4.4,3.6,8,8,8
		s8-3.6,8-8c0-17.7,14.3-32,32-32s32,14.3,32,32c0,33.4-49,66.6-72,79C217,250.7,168,217.5,168,184z"/>
</g>
</svg>
