<?xml version="1.0" encoding="utf-8"?>
<!-- Generator: Adobe Illustrator 24.0.1, SVG Export Plug-In . SVG Version: 6.00 Build 0)  -->
<svg version="1.1" xmlns="http://www.w3.org/2000/svg" xmlns:xlink="http://www.w3.org/1999/xlink" x="0px" y="0px" width="50px"
	 height="50px" viewBox="0 0 50 50" style="enable-background:new 0 0 50 50;" xml:space="preserve">
<style type="text/css">
	.st0{fill:none;stroke:#FFFFFF;stroke-miterlimit:10;}
	.st1{fill:#FFFFFF;stroke:#111010;stroke-width:0.25;stroke-miterlimit:10;}
	.st2{fill:#FFFFFF;}
</style>
<g id="Capa_1">
	<path d="M24.9,10.1c2-4.8,6.6-8.1,12-8.1c7.2,0,12.4,6.2,13.1,13.5c0,0,0.4,1.8-0.4,5.1c-1.1,4.5-3.5,8.5-6.9,11.5L24.9,48
		L7.4,32.2c-3.4-3-5.8-7-6.9-11.5c-0.8-3.3-0.4-5.1-0.4-5.1C0.7,8.2,5.9,2,13.2,2C18.5,2,22.8,5.3,24.9,10.1z"/>
	<polyline class="st0" points="24.9,10.1 21.3,16.5 27.4,21.5 20.6,26.3 28.3,31.2 21.5,35.9 28.3,38.7 22.1,42.2 24.9,48 	"/>
	<path class="st1" d="M24.4,9.9"/>
</g>
<g id="Layer_2">
	<rect x="24.5" y="9.8" transform="matrix(-0.905 0.4254 -0.4254 -0.905 51.182 8.5615)" class="st2" width="0.3" height="0.4"/>
	<rect x="24.5" y="9.6" transform="matrix(0.8238 0.5669 -0.5669 0.8238 9.8984 -12.2387)" class="st2" width="0.3" height="0.4"/>
	<rect x="25.4" y="5.8" transform="matrix(0.8996 0.4367 -0.4367 0.8996 6.1466 -10.4661)" class="st2" width="0.9" height="4.6"/>
</g>
</svg>
