<?xml version="1.0" encoding="utf-8"?>
<!-- Generator: Adobe Illustrator 24.0.1, SVG Export Plug-In . SVG Version: 6.00 Build 0)  -->
<svg version="1.1" xmlns="http://www.w3.org/2000/svg" xmlns:xlink="http://www.w3.org/1999/xlink" x="0px" y="0px" width="180px"
	 height="180px" viewBox="0 0 180 180" style="enable-background:new 0 0 180 180;" xml:space="preserve">
<style type="text/css">
	.st0{display:none;}
	.st1{display:inline;}
	.st2{fill:#C4926D;}
	.st3{fill:#DCB58F;}
	.st4{fill:#020101;}
	.st5{fill:none;stroke:#FFFFFF;stroke-width:2;stroke-linecap:round;stroke-miterlimit:10;}
</style>
<g id="Layer_1" class="st0">
	<g class="st1">
		<g>
			<g>
				<ellipse cx="112" cy="56.2" rx="15.7" ry="15.7"/>
				<ellipse cx="125.3" cy="65.9" rx="13.3" ry="13.3"/>
				<circle cx="134.2" cy="77.8" r="8.1"/>
				<circle cx="137.5" cy="93.8" r="14.7"/>
				<ellipse cx="133.4" cy="106.7" rx="13.9" ry="13.9"/>
				<ellipse cx="129.9" cy="123.4" rx="10.6" ry="10.6"/>
				<circle cx="119.2" cy="132.1" r="8.4"/>
				<polygon points="108.7,73 129.3,69.7 134.2,84 127.6,105.9 113.2,105.9 				"/>
			</g>
			<g>
				<circle cx="47.5" cy="104.6" r="13.6"/>
				<ellipse cx="55.6" cy="121.3" rx="11.7" ry="11.7"/>
				<circle cx="64.3" cy="128" r="11.7"/>
				<circle cx="85.9" cy="56.1" r="15.7"/>
				<ellipse cx="67.7" cy="59.2" rx="14.3" ry="14.3"/>
				<circle cx="55.6" cy="72.9" r="8.1"/>
				<circle cx="51.4" cy="86.5" r="12.9"/>
			</g>
			<path d="M155.5,157c0-15.9-12.9-28.9-28.9-28.9H55c-16,0-28.9,12.9-28.9,28.9v23.1h129.3V157z"/>
			<rect x="70.2" y="102.9" class="st2" width="41.2" height="46.9"/>
			<g>
				<path class="st3" d="M124.1,80.9v27.7c0,11.9-7.1,23-17.2,28.1c-3.7,1.9-7.8,2.9-12.2,2.9H89c-4.4,0-8.5-1.1-12.2-2.9
					c-10.2-5.1-17.2-16.2-17.2-28.1V80.9c0-11.7,9.5-21.2,21.2-21.2h22.2C114.6,59.7,124.1,69.2,124.1,80.9z"/>
				<path d="M97.6,135c0-4.8-2.6-8.7-5.8-8.7S86,130.2,86,135c0,0,0,0.1,0,0.1h11.6C97.6,135.1,97.6,135.1,97.6,135z"/>
				<g>
					<path class="st2" d="M124.1,105v3.6c0,11.9-7.1,23-17.2,28.1v-10.9C106.9,115.5,114.3,106.9,124.1,105z"/>
					<path class="st2" d="M76.8,125.9v10.9c-10.2-5.1-17.2-16.2-17.2-28.1V105C69.3,106.9,76.8,115.5,76.8,125.9z"/>
				</g>
				<path d="M124.1,102.9v5.7c0,16.3-13.2,31.1-29.5,31.1H89c-16.3,0-29.5-14.8-29.5-31.1v-5.7c0,16.3,13.2,29.5,29.5,29.5h5.7
					C110.9,132.4,124.1,119.2,124.1,102.9z"/>
			</g>
			<g>
				<path d="M105.3,97.1c-2.3,0-3.1,1.8-3.5,3.9h9.4C110.4,99.7,107.6,97.1,105.3,97.1z"/>
				<g>
					<path d="M115.5,97c-5.9,0-11.8-1.2-17.3-3.3l1.9-4.6c5.1,2,10.7,3.1,16.2,3l0.1,5C116.1,97,115.8,97,115.5,97z"/>
				</g>
			</g>
			<g>
				<path d="M77.4,97.1c2.3,0,3.1,1.8,3.5,3.9h-9.4C72.3,99.7,75.1,97.1,77.4,97.1z"/>
				<g>
					<path d="M67.3,97c-0.3,0-0.6,0-0.8,0l0.1-5c5.5,0.1,11.1-0.9,16.2-3l1.9,4.6C79.1,95.8,73.1,97,67.3,97z"/>
				</g>
			</g>
			<g>
				<path d="M80.3,121.7l-1.2-3.8c3.4-1,9.2-5.2,11.1-6.7l1.2-1l1.2,1c2.2,1.8,6.8,5,11.9,6.7l-1.2,3.8c-4.9-1.6-9.2-4.4-11.9-6.4
					C89.2,117,84,120.6,80.3,121.7z"/>
			</g>
			<path d="M82.2,73.9c-1.6,4.2-2.8,8.7-4.7,12.8c-5.5,11.6-17.2,20-29.9,21.4c1.8-8.8,0.4-18.1,2.5-26.8
				c2.5-10.5,10.3-19.6,20.1-24.1c4.3-2,9-3.1,13.8-3.4c2.6-0.2,10.5-1,11.9,1.9c1.7,3.5-4.8,5.2-6.6,6.8
				C85.9,65.4,83.8,69.7,82.2,73.9z"/>
			<path d="M90.8,58.8c4.6-0.1,9.2,0.9,13.1,3.3c3.8,2.5,6.8,6.5,7.2,11.1c0.3,3.8-1,7.5-1,11.3s2,8.2,5.8,8.5
				c-3-2.3-3.3-6.8-2.3-10.4s2.8-7.1,3.2-10.8c0.4-4.2-1.1-8.5-4.2-11.5c-3-3-7.4-4.4-11.6-3.9L90.8,58.8z"/>
		</g>
		<g>
			<path d="M156.8,169.7c1.3,0.8,2.6,1.6,3.8,2.4c0.3-4.4-0.9-9-3.4-12.7c2.2,1,4.4,2,6.6,3c-0.6-5.3-3-10.3-6.8-14
				c2.7,1.4,5.4,2.8,8,4.2c-2-6.3-6.2-11.9-11.6-15.6c2.9,0.3,5.9,0.6,8.9,0.9c-4.5-4.6-10.6-7.8-17-8.7c3.4-1.4,7.2-2,10.9-1.7
				c-6.9-2.6-25.1-8-29.6,0.9c-2.3,4.5,0.8,6.6,4.1,9.1c4.1,3.1,7.7,6.7,10.6,11.1c5.9,8.9,8.6,21,7.1,31.6h10.4
				C159,176.6,158.5,172.6,156.8,169.7z"/>
			<path d="M38.9,148.4c2.9-4.3,6.5-7.9,10.6-11.1c3.3-2.5,6.4-4.6,4.1-9.1c-4.5-8.9-22.7-3.5-29.6-0.9c3.7-0.3,7.5,0.3,10.9,1.7
				c-6.4,0.9-12.5,4-17,8.7c3-0.3,5.9-0.6,8.9-0.9c-5.5,3.7-9.7,9.3-11.6,15.6c2.7-1.4,5.4-2.8,8-4.2c-3.8,3.7-6.2,8.7-6.8,14
				c2.2-1,4.4-2,6.6-3c-2.5,3.7-3.7,8.2-3.4,12.7c1.3-0.8,2.6-1.6,3.8-2.4c-1.7,2.9-2.3,6.9-2,10.4h10.8
				C30.6,169.4,33,157.3,38.9,148.4z"/>
		</g>
	</g>
</g>
<g id="Layer_2">
	<g>
		<circle class="st4" cx="88.9" cy="70.2" r="39.2"/>
		<polyline class="st5" points="74.8,84.3 88.9,70.2 103,56 		"/>
		<polyline class="st5" points="74.8,56 88.9,70.2 103,84.3 		"/>
	</g>
	<g>
		<path d="M28.7,123.2v12c0,4.5,2,6.5,4.7,6.5c3,0,4.9-2,4.9-6.5v-12H41V135c0,6.2-3.3,8.8-7.6,8.8c-4.1,0-7.3-2.4-7.3-8.6v-11.9
			H28.7z"/>
		<path d="M45.5,143.4v-20.2h2.9l6.5,10.2c1.5,2.4,2.7,4.5,3.6,6.6l0.1,0c-0.2-2.7-0.3-5.2-0.3-8.3v-8.5h2.5v20.2h-2.6l-6.4-10.3
			c-1.4-2.2-2.8-4.6-3.8-6.8l-0.1,0c0.1,2.5,0.2,5,0.2,8.3v8.6H45.5z"/>
		<path d="M82.3,134.5c-0.2-2.8-0.3-6.2-0.3-8.7h-0.1c-0.7,2.4-1.5,4.9-2.6,7.7l-3.6,9.8h-2l-3.3-9.6c-1-2.8-1.8-5.5-2.3-7.9h-0.1
			c-0.1,2.5-0.2,5.9-0.4,8.9l-0.5,8.7h-2.5l1.4-20.2h3.3l3.5,9.8c0.8,2.5,1.5,4.7,2,6.8h0.1c0.5-2,1.2-4.3,2.1-6.8l3.6-9.8h3.3
			l1.3,20.2h-2.5L82.3,134.5z"/>
		<path d="M92.4,137l-2.1,6.4h-2.7l6.9-20.2h3.1l6.9,20.2h-2.8l-2.2-6.4H92.4z M99,135l-2-5.8c-0.4-1.3-0.8-2.5-1-3.7h-0.1
			c-0.3,1.2-0.6,2.4-1,3.7l-2,5.8H99z"/>
		<path d="M109,125.4h-6.2v-2.2h15v2.2h-6.2v18H109V125.4z"/>
		<path d="M133.4,142.7c-1,0.5-2.9,1-5.3,1c-5.7,0-10-3.6-10-10.2c0-6.3,4.3-10.6,10.6-10.6c2.5,0,4.1,0.5,4.8,0.9l-0.6,2.1
			c-1-0.5-2.4-0.8-4.1-0.8c-4.7,0-7.9,3-7.9,8.3c0,5,2.8,8.1,7.8,8.1c1.6,0,3.2-0.3,4.3-0.8L133.4,142.7z"/>
		<path d="M139.3,123.2v8.5h9.8v-8.5h2.6v20.2H149v-9.5h-9.8v9.5h-2.6v-20.2H139.3z"/>
	</g>
</g>
</svg>
