<?xml version="1.0" encoding="utf-8"?>
<!-- Generator: Adobe Illustrator 24.0.1, SVG Export Plug-In . SVG Version: 6.00 Build 0)  -->
<svg version="1.1" xmlns="http://www.w3.org/2000/svg" xmlns:xlink="http://www.w3.org/1999/xlink" x="0px" y="0px"
	 viewBox="0 0 300 400" style="enable-background:new 0 0 300 400;" xml:space="preserve">
<style type="text/css">
	.st0{fill:#CDE2E7;}
	.st1{fill:#F08071;}
	.st2{fill:#A7C6CD;}
	.st3{fill:#FFFFFF;}
	.st4{fill:#185A6E;}
	.st5{fill:#A11D25;}
	.st6{fill:#BE916C;}
	.st7{fill:#D6AC8A;}
	.st8{fill:#AB6D44;}
	.st9{fill:#628FBE;}
	.st10{fill:#100C17;}
	.st11{fill:#E4C81F;}
	.st12{fill:#958230;}
	.st13{fill:#B19E32;}
	.st14{fill:#D0BF2B;}
	.st15{fill:#5E0D19;}
	.st16{fill:#771824;}
</style>
<g id="Layer_1">
	<path class="st0" d="M236.8,396.1H66.9c-15,0-27.2-12.3-27.2-27.2V33.3c0-14.9,12.2-27.2,27.2-27.2h169.9
		c14.9,0,27.2,12.3,27.2,27.2v335.6C264,383.8,251.7,396.1,236.8,396.1z"/>
	<rect x="62.5" y="301.1" class="st1" width="178.6" height="40.7"/>
	<path class="st2" d="M173,40.1h-42.4c-2.1,0-3.9-1.7-3.9-3.9l0,0c0-2.1,1.7-3.9,3.9-3.9H173c2.1,0,3.9,1.7,3.9,3.9l0,0
		C176.9,38.4,175.2,40.1,173,40.1z"/>
	<circle class="st3" cx="129.4" cy="321.4" r="4.4"/>
	<circle class="st3" cx="151.9" cy="321.4" r="4.4"/>
	<circle class="st3" cx="174.3" cy="321.4" r="4.4"/>
	<path class="st1" d="M92.4,247.6c-1.7-3.3-5.9-1.1-7.7,1.5c-0.1,0.2-0.3,0.5-0.4,0.8c-0.1-0.3-0.3-0.6-0.4-0.8
		c-1.8-2.6-6.1-4.8-7.7-1.5c-2.8,5.5,7.3,13.2,8.2,13.6C85.1,260.7,95.2,253.1,92.4,247.6z"/>
	<path class="st3" d="M121.7,252.8c0-4-4.6-7.2-10.3-7.2s-10.3,3.2-10.3,7.2s4.6,7.2,10.3,7.2c1.5,0,2.9-0.2,4.1-0.6l2.5,2.1v-3.2
		C120.2,257,121.7,255,121.7,252.8z"/>
	<path class="st4" d="M226.4,275.3h-149c-1.1,0-1.9-0.9-1.9-1.9l0,0c0-1.1,0.9-1.9,1.9-1.9h149c1.1,0,1.9,0.9,1.9,1.9l0,0
		C228.3,274.5,227.4,275.3,226.4,275.3z"/>
	<path class="st4" d="M120.5,283.1H77.3c-1.1,0-1.9-0.9-1.9-1.9l0,0c0-1.1,0.9-1.9,1.9-1.9h43.1c1.1,0,1.9,0.9,1.9,1.9l0,0
		C122.4,282.2,121.5,283.1,120.5,283.1z"/>
	<circle class="st4" cx="151.9" cy="154.9" r="64.1"/>
	<g>
		<path class="st5" d="M183.4,195H121v-15c0-6.6,5.3-11.9,11.9-11.9h38.6c6.6,0,11.9,5.3,11.9,11.9L183.4,195L183.4,195z"/>
		<rect x="141" y="152.8" class="st6" width="22.2" height="18.3"/>
		<g>
			<path class="st5" d="M151.9,180.2H141v-14.1h7.4c1.9,0,3.5,1.6,3.5,3.5V180.2z"/>
			<path class="st5" d="M152.3,180.2h10.9v-14.1h-7.4c-1.9,0-3.5,1.6-3.5,3.5V180.2z"/>
		</g>
		<g>
			<path class="st7" d="M173.1,145.8h-1.2v-12.4h1.2c1.8,0,3.2,1.4,3.2,3.2v5.9C176.3,144.4,174.9,145.8,173.1,145.8z"/>
			<path class="st7" d="M131.1,145.8h1.2v-12.4h-1.2c-1.8,0-3.2,1.4-3.2,3.2v5.9C127.9,144.4,129.3,145.8,131.1,145.8z"/>
			<path class="st7" d="M174,130.2v16.4c0,5.8-3.2,11-8.2,13l-11.3,4.7c-2,0.9-4.3,0.8-6.3-0.1l-9.8-4.5c-4.7-2.2-7.8-7.2-7.8-12.9
				v-19.3c0-1,0.1-2,0.2-3c7.2-6.7,18.8-9.4,28.2-6.4C165.2,120.3,170.6,124.6,174,130.2z"/>
			<g>
				<path class="st8" d="M156.6,153.6c-1.1-0.5-2.6-0.8-4.2-0.8s-3.1,0.3-4.2,0.8l-0.8-1.7c1.4-0.6,3.1-0.9,5-0.9s3.7,0.3,5,0.9
					L156.6,153.6z"/>
			</g>
			<g>
				<g>
					<path class="st9" d="M163.8,141.6c-0.2,1.1-1.5,1.7-2.9,1.5c-1.4-0.3-2.4-1.4-2.1-2.5c0.2-1.1,1.5-1.7,2.9-1.5
						C163.1,139.4,164.1,140.5,163.8,141.6z"/>
					<path class="st9" d="M140.9,141.6c0.2,1.1,1.6,1.7,2.9,1.4c1.4-0.3,2.3-1.4,2.1-2.5c-0.2-1.1-1.6-1.7-2.9-1.4
						C141.6,139.4,140.6,140.5,140.9,141.6z"/>
					<g>
						<path class="st10" d="M157.2,139.8l-1.1-1.6c3.7-2.5,8.3-3.4,12.7-2.6l-0.4,1.9C164.6,136.8,160.5,137.6,157.2,139.8z"/>
					</g>
					<g>
						<path class="st10" d="M147.5,139.8c-3.3-2.2-7.4-3.1-11.3-2.3l-0.4-1.9c4.4-0.8,9,0.1,12.7,2.6L147.5,139.8z"/>
					</g>
				</g>
				<circle class="st3" cx="162.4" cy="140.7" r="0.6"/>
				<circle class="st3" cx="144.3" cy="140.7" r="0.6"/>
			</g>
			<g>
				<rect x="130.6" y="117.1" class="st11" width="3" height="26.1"/>
				<path class="st11" d="M174,127.6v15.6h-3v-14.8c0-1.5-0.6-3-1.8-4.1c0,0,0,0,0,0c-1.2-1.1-2.8-1.6-4.4-1.4
					c-4.9,0.5-9.8-0.2-14.4-2c1.6,2.2,3.8,3.9,6.2,4.9c-1.2-0.5-3.3-0.2-4.6-0.4c-1.6-0.2-3.2-0.6-4.7-1c-2.7-0.8-6.8-1.9-8.7-3.9
					c2.6-1.5,6-2.6,9.3-3.3c-6.3,0.6-12.6,3.3-17.1,7.4c1.3-9.5,8.8-16.8,17.8-16.8h7.4c6.4,0,12,3.7,15.2,9.2
					C173,120.1,174,123.8,174,127.6z"/>
			</g>
			<g>
				<path class="st12" d="M151.4,112.8c0.2,0.2,0.4,0.3,0.5,0.4C151.8,113.1,151.7,113,151.4,112.8c-0.3-0.3-0.5-0.4-0.5-0.5
					C151,112.4,151.2,112.6,151.4,112.8c-5.2-4.9,6.1-16.7-3.3-18.6c5.6,3.2-10.6,12.4-8.8-1.9c-1.5,3.5-1.6,7.1-0.6,10.3
					c2,1.1,3.7,2.9,4.9,4.7c0.8,1.3,1.1,2.7,1.3,4.1c3.9,3.1,9,4.5,13.4,2.9C155.8,115,153.5,114.5,151.4,112.8z"/>
				<path class="st12" d="M166.8,104.1c-0.8-1.4-4.7-8.8,0.3-9.6c-11.2-0.9-3.1,10.5-6.1,13.1c-3.6,3.1-8.7-0.7-4.6-3.4
					c-7.2-0.9-2.5,8.4,1.8,9.6C164.6,115.7,170.3,110.3,166.8,104.1z"/>
				<path class="st12" d="M127.6,115.9c-0.1-1.7-1-9.9-5.6-7.8c8.9-7,8.4,7,12.3,7.5c4.7,0.6,6.8-5.4,2-5.4c5.6-4.7,6.8,5.6,3.9,9
					C135.8,124.4,128.1,123,127.6,115.9z"/>
				<path class="st12" d="M143.9,111.8c-0.2-2.4-1.3-4.7-3.3-6.4c-1.2-1-2.7-1.8-4.3-1.9c-1.6-0.1-3.4,0.5-4.4,1.8
					c0-1.6,1.3-3.2,3-3.8c1.6-0.6,3.5-0.5,5.1,0.1c1.6,0.6,3,1.6,4.3,2.6c1.7,1.3,3.4,2.9,3.9,4.9c0.2,0.9,0.3,1.9,0.7,2.7
					c1,1.9,3.8,2.2,5.3,3.7c-1.8,0.6-3.6,1.2-5.5,1.7c-0.9,0.3-1.7,0.6-2.6,0.8c-0.9,0.3-1.6,0.7-2.6,0.9c-0.5,0.1-2.5,0.2-2.8,0.5
					C143.1,117.3,144,114.5,143.9,111.8z"/>
				<path class="st13" d="M167.9,114.7l-35,10.5c-1.2,0.3-2.4-0.3-2.7-1.5l0,0c-0.3-1.2,0.3-2.4,1.5-2.7l35-10.5
					c1.2-0.3,2.4,0.3,2.7,1.5l0,0C169.7,113.2,169,114.4,167.9,114.7z"/>
				<path class="st14" d="M147.1,103.7c0.4,1.3-0.2,2.6-1.4,2.9c-1.1,0.3-2.4-0.4-2.8-1.7c-0.4-1.3,0.2-2.6,1.4-2.9
					C145.5,101.7,146.7,102.5,147.1,103.7z"/>
			</g>
		</g>
		<path class="st15" d="M149.9,195h12.6c5.2-6.9,8.2-15.2,7.2-24.6C167.9,182.5,160,190.2,149.9,195z"/>
		<path class="st16" d="M169.8,170.4c0,0,0-0.1,0-0.1c-0.5-0.1-1.1-0.1-1.5-0.4C161.7,181.9,136,195,136,195h13.9
			C160,190.2,167.9,182.5,169.8,170.4z"/>
		<path class="st16" d="M169.8,170.3c0,0,0,0.1,0,0.1C169.8,170.3,169.8,170.3,169.8,170.3C169.8,170.3,169.8,170.3,169.8,170.3z"/>
		<path class="st16" d="M171.1,170.4c-0.4,0-0.7,0-1.1-0.1c-0.1,0-0.1,0-0.2,0c0,0,0,0.1,0,0.1c1,9.4-2,17.7-7.2,24.6H173
			C175.8,179.6,172.4,172.4,171.1,170.4z"/>
		<path class="st12" d="M174.1,168.7c0,1.7-2,3.1-4.4,3.1c-2.4,0-4.4-1.4-4.4-3.1c0-1.7,2-3.1,4.4-3.1
			C172.1,165.6,174.1,167,174.1,168.7z"/>
	</g>
</g>
<g id="Layer_2">
</g>
</svg>
