<?xml version="1.0" encoding="utf-8"?>
<!-- Generator: Adobe Illustrator 24.0.1, SVG Export Plug-In . SVG Version: 6.00 Build 0)  -->
<svg version="1.1" xmlns="http://www.w3.org/2000/svg" xmlns:xlink="http://www.w3.org/1999/xlink" x="0px" y="0px"
	 viewBox="0 0 300 400" style="enable-background:new 0 0 300 400;" xml:space="preserve">
<style type="text/css">
	.st0{fill:#CDE2E7;}
	.st1{fill:#F08071;}
	.st2{fill:#A7C6CD;}
	.st3{fill:#FFFFFF;}
	.st4{fill:#185A6E;}
	.st5{fill:#E5958F;}
	.st6{fill:#DCB58F;}
	.st7{fill:#943138;}
	.st8{fill:#84411D;}
	.st9{fill:#AD5E27;}
	.st10{fill:#E9B7AF;}
	.st11{fill:#3B5333;}
	.st12{fill:#231F20;}
	.st13{fill:#D36C63;}
	.st14{fill:#DD847A;}
	.st15{fill:none;stroke:#84411D;stroke-linecap:round;stroke-miterlimit:10;}
</style>
<g id="Layer_1">
	<path class="st0" d="M236.8,396.1H66.9c-15,0-27.2-12.3-27.2-27.2V33.3c0-14.9,12.2-27.2,27.2-27.2h169.9
		c14.9,0,27.2,12.3,27.2,27.2v335.6C264,383.8,251.7,396.1,236.8,396.1z"/>
	<rect x="62.5" y="301.1" class="st1" width="178.6" height="40.7"/>
	<path class="st2" d="M173,40.1h-42.4c-2.1,0-3.9-1.7-3.9-3.9l0,0c0-2.1,1.7-3.9,3.9-3.9H173c2.1,0,3.9,1.7,3.9,3.9l0,0
		C176.9,38.4,175.2,40.1,173,40.1z"/>
	<circle class="st3" cx="129.4" cy="321.4" r="4.4"/>
	<circle class="st3" cx="151.9" cy="321.4" r="4.4"/>
	<circle class="st3" cx="174.3" cy="321.4" r="4.4"/>
	<path class="st1" d="M92.4,247.6c-1.7-3.3-5.9-1.1-7.7,1.5c-0.1,0.2-0.3,0.5-0.4,0.8c-0.1-0.3-0.3-0.6-0.4-0.8
		c-1.8-2.6-6.1-4.8-7.7-1.5c-2.8,5.5,7.3,13.2,8.2,13.6C85.1,260.7,95.2,253.1,92.4,247.6z"/>
	<path class="st3" d="M121.7,252.8c0-4-4.6-7.2-10.3-7.2s-10.3,3.2-10.3,7.2s4.6,7.2,10.3,7.2c1.5,0,2.9-0.2,4.1-0.6l2.5,2.1v-3.2
		C120.2,257,121.7,255,121.7,252.8z"/>
	<path class="st4" d="M226.4,275.3h-149c-1.1,0-1.9-0.9-1.9-1.9l0,0c0-1.1,0.9-1.9,1.9-1.9h149c1.1,0,1.9,0.9,1.9,1.9l0,0
		C228.3,274.5,227.4,275.3,226.4,275.3z"/>
	<path class="st4" d="M120.5,283.1H77.3c-1.1,0-1.9-0.9-1.9-1.9l0,0c0-1.1,0.9-1.9,1.9-1.9h43.1c1.1,0,1.9,0.9,1.9,1.9l0,0
		C122.4,282.2,121.5,283.1,120.5,283.1z"/>
	<circle class="st4" cx="151.9" cy="154.9" r="64.1"/>
	<g>
		<rect x="146.3" y="162.6" class="st5" width="11.3" height="9.7"/>
		<rect x="146.3" y="172.3" class="st6" width="11.3" height="6"/>
		<rect x="146.3" y="169.8" class="st7" width="11.3" height="2.5"/>
		<rect x="146.3" y="172.3" class="st7" width="11.3" height="6"/>
		<rect x="146.3" y="169.8" class="st8" width="11.3" height="2.4"/>
		<g>
			<path class="st9" d="M176.8,180.9c-3.2-2.8-7.3-5-12.2-6.4l-7.6-2.1h-10.3l-8,2.2c-4.9,1.4-9.1,3.6-12.4,6.4
				c-4.3,3.8-6.9,8.7-6.9,13.8v0.2h64.1v-0.4C183.6,189.5,181.1,184.7,176.8,180.9z"/>
			<path class="st8" d="M172.8,177.9c-2.4-1.4-5.1-2.6-8.2-3.5l-7.6-2.1h-10.3l-8,2.2c-3,0.8-5.8,2-8.3,3.5
				c-1.5,0.9-2.9,1.9-4.1,2.9c5.6,7.5,14.8,12.5,25.2,12.5c10.4,0,19.7-5,25.2-12.5C175.6,179.8,174.2,178.8,172.8,177.9z"/>
			<path class="st9" d="M164.6,174.5l-7.6-2.1h-10.3l-8,2.2c-3,0.8-5.8,2-8.3,3.5c5.5,4.9,12.9,8,21.1,8c8.2,0,15.7-3.1,21.2-8
				C170.4,176.5,167.6,175.3,164.6,174.5z"/>
		</g>
		<g>
			<path class="st10" d="M174.4,144.7c0,12.3-11.8,22.9-22.7,22.9c-10.7,0-22.7-10.6-22.7-22.9s10.2-22.3,22.7-22.3
				S174.4,132.4,174.4,144.7z"/>
			<g>
				<path class="st11" d="M164.3,150.1l-4.5-1.9c-0.7,0.5-1.1,1.3-1.1,2.2c0,1.6,1.3,2.8,2.8,2.8c1.6,0,2.8-1.3,2.8-2.8
					C164.4,150.4,164.4,150.3,164.3,150.1L164.3,150.1z"/>
				<circle class="st3" cx="163.3" cy="150.9" r="0.6"/>
			</g>
			<path class="st12" d="M167.3,149.4c0,0,0-0.2-0.1-0.5c-0.1-0.3-0.4-0.7-0.8-1c-0.2-0.1-0.5-0.3-0.7-0.3c-0.1,0-0.2,0-0.3-0.1
				l-0.2,0c-0.2,0-0.3-0.1-0.5-0.1c-0.7,0-1.4,0-2.1,0.2c-0.4,0.1-0.7,0.2-1,0.4s-0.6,0.3-1,0.4c-0.6,0.3-1.3,0.4-1.8,0.6
				c-0.6,0.2-1,0.3-1.4,0.4c-0.4,0.1-0.6,0.1-0.6,0.1l-0.2-0.2c0,0,0-0.1,0.1-0.2c0-0.1,0.1-0.3,0.2-0.4s0.2-0.4,0.4-0.6
				c0.2-0.2,0.4-0.5,0.6-0.7c0.5-0.5,1.1-0.9,1.9-1.2c0.8-0.3,1.7-0.3,2.6-0.4c0.9,0,1.8,0,2.6,0.3c0.2,0.1,0.4,0.1,0.6,0.2
				c0.1,0,0.2,0.1,0.3,0.1c0.1,0,0.2,0.1,0.2,0.1c0.4,0.2,0.7,0.5,0.9,0.7c0.4,0.5,0.6,1.1,0.7,1.5c0,0.2,0,0.4,0,0.5
				c0,0.1,0,0.1,0,0.1L167.3,149.4z"/>
			<g>
				<path class="st11" d="M143.8,148.2l-4.6,2c0,0.1,0,0.2,0,0.3c0,1.6,1.3,2.8,2.8,2.8c1.6,0,2.8-1.3,2.8-2.8
					C144.9,149.5,144.4,148.7,143.8,148.2z"/>
				<circle class="st3" cx="143.6" cy="150.9" r="0.6"/>
			</g>
			<path class="st12" d="M136,149.4c0,0,0-0.1,0-0.1c0-0.1,0-0.3,0-0.5c0-0.4,0.2-1,0.7-1.5c0.2-0.3,0.5-0.5,0.9-0.7
				c0.1,0,0.2-0.1,0.2-0.1c0.1,0,0.2-0.1,0.3-0.1c0.2-0.1,0.4-0.2,0.6-0.2c0.8-0.3,1.7-0.4,2.6-0.3c0.9,0,1.8,0.1,2.6,0.4
				c0.8,0.3,1.4,0.8,1.9,1.2c0.2,0.2,0.4,0.5,0.6,0.7c0.2,0.2,0.3,0.4,0.4,0.6c0.1,0.2,0.1,0.3,0.2,0.4c0,0.1,0.1,0.2,0.1,0.2
				l-0.2,0.2c0,0-0.2,0-0.6-0.1c-0.4-0.1-0.9-0.2-1.4-0.4c-0.6-0.2-1.2-0.3-1.8-0.6c-0.3-0.1-0.6-0.3-1-0.4c-0.3-0.1-0.7-0.3-1-0.4
				c-0.7-0.2-1.4-0.2-2.1-0.2c-0.2,0-0.3,0-0.5,0.1l-0.2,0c-0.1,0-0.2,0-0.3,0.1c-0.3,0.1-0.5,0.2-0.7,0.3c-0.4,0.3-0.7,0.7-0.8,1
				c-0.1,0.3-0.1,0.5-0.1,0.5L136,149.4z"/>
			<g>
				<path class="st13" d="M150.8,158.8c0,0-1.2,0.4-1.5,1h3C152,159.2,150.8,158.8,150.8,158.8z"/>
				<g>
					<path class="st13" d="M152.7,158.8c0,0-1.2,0.4-1.5,1h3C153.9,159.2,152.7,158.8,152.7,158.8z"/>
				</g>
			</g>
			<path class="st12" d="M178.4,147.2c-0.2-0.8-0.4-1.7-0.6-2.6c0,3.1-0.3,6.8-1.2,9.7c-0.2-1.2-0.6-2.2-1.3-3.2
				c0.2,2.8,0,5.6-0.7,8.3c-0.1,0.1-0.1,0.3-0.2,0.4c-0.4-1.5-0.8-2.9-1.1-4.4c0.1,2.1-0.1,4.2-0.6,6.3
				c-8.9-15.1-29.6-36.1-29.6-36.1s-4.5-2.7,8.1-6.5c12.7-3.8,24.8,6,27,17C179,139.9,178.9,143.7,178.4,147.2z"/>
			<path class="st12" d="M146.4,124c-3.5,0.7-8.9,4.2-10.8,7.2c-5.2,8.3-4.5,20.3,2.3,28c-7.3-2.6-9.6-11.5-10-14.1
				c-2.7-17.3,5.2-20.7,8.8-23.1c3.2-2.2,7.2-3,11.1-3s7.7,0.9,11.4,2L146.4,124z"/>
			<path class="st14" d="M149.3,160c0.2,1.1,1.2,1.9,2.4,1.9s2.2-0.8,2.4-1.9H149.3z"/>
		</g>
		<g>
			<path class="st8" d="M155.8,182.9l-2.7-8.5l4.7,7.6c0.4,0.5,0.3,1.2-0.2,1.6c-0.5,0.4-1.2,0.3-1.6-0.2
				C155.9,183.2,155.8,183,155.8,182.9z"/>
			<path class="st8" d="M162.8,182.1l-7.4-7.7l8.7,5.9c0.5,0.3,0.8,1,0.5,1.5c-0.3,0.5-1,0.8-1.5,0.5
				C162.9,182.2,162.9,182.2,162.8,182.1z"/>
			<path class="st8" d="M168.2,180.2l-10.6-5.8l11.4,3.7c0.6,0.2,0.9,0.8,0.7,1.4c-0.2,0.6-0.8,0.9-1.4,0.7L168.2,180.2z"/>
		</g>
		<g>
			<path class="st8" d="M148.9,182.9l2.7-8.5l-4.7,7.6c-0.4,0.5-0.3,1.2,0.2,1.6c0.5,0.4,1.2,0.3,1.6-0.2
				C148.8,183.2,148.9,183,148.9,182.9z"/>
			<path class="st8" d="M141.9,182.1l7.4-7.7l-8.7,5.9c-0.5,0.3-0.8,1-0.5,1.5c0.3,0.5,1,0.8,1.5,0.5
				C141.7,182.2,141.8,182.2,141.9,182.1z"/>
			<path class="st8" d="M136.5,180.2l10.6-5.8l-11.4,3.7c-0.6,0.2-0.9,0.8-0.7,1.4c0.2,0.6,0.8,0.9,1.4,0.7L136.5,180.2z"/>
		</g>
		<g>
			<path class="st15" d="M163.7,177"/>
		</g>
	</g>
</g>
<g id="Layer_2">
</g>
</svg>
