<?xml version="1.0" encoding="utf-8"?>
<!-- Generator: Adobe Illustrator 24.0.1, SVG Export Plug-In . SVG Version: 6.00 Build 0)  -->
<svg version="1.1" xmlns="http://www.w3.org/2000/svg" xmlns:xlink="http://www.w3.org/1999/xlink" x="0px" y="0px"
	 viewBox="0 0 300 400" style="enable-background:new 0 0 300 400;" xml:space="preserve">
<style type="text/css">
	.st0{fill:#CDE2E7;}
	.st1{fill:#F08071;}
	.st2{fill:#A7C6CD;}
	.st3{fill:#FFFFFF;}
	.st4{fill:#185A6E;}
	.st5{fill:#C0A22F;}
	.st6{fill:#CC2E2E;}
	.st7{fill:#CE9975;}
	.st8{fill:#E2B99A;}
	.st9{fill:#E5C026;}
	.st10{fill:#C75955;}
	.st11{fill:#D78076;}
	.st12{fill:#D8AC8E;}
	.st13{fill:#1D6A7C;}
	.st14{fill:#605121;}
</style>
<g id="Layer_1">
	<path class="st0" d="M236.8,396.1H66.9c-15,0-27.2-12.3-27.2-27.2V33.3c0-14.9,12.2-27.2,27.2-27.2h169.9
		c14.9,0,27.2,12.3,27.2,27.2v335.6C264,383.8,251.7,396.1,236.8,396.1z"/>
	<rect x="62.5" y="301.1" class="st1" width="178.6" height="40.7"/>
	<path class="st2" d="M173,40.1h-42.4c-2.1,0-3.9-1.7-3.9-3.9l0,0c0-2.1,1.7-3.9,3.9-3.9H173c2.1,0,3.9,1.7,3.9,3.9l0,0
		C176.9,38.4,175.2,40.1,173,40.1z"/>
	<circle class="st3" cx="129.4" cy="321.4" r="4.4"/>
	<circle class="st3" cx="151.9" cy="321.4" r="4.4"/>
	<circle class="st3" cx="174.3" cy="321.4" r="4.4"/>
	<path class="st1" d="M92.4,247.6c-1.7-3.3-5.9-1.1-7.7,1.5c-0.1,0.2-0.3,0.5-0.4,0.8c-0.1-0.3-0.3-0.6-0.4-0.8
		c-1.8-2.6-6.1-4.8-7.7-1.5c-2.8,5.5,7.3,13.2,8.2,13.6C85.1,260.7,95.2,253.1,92.4,247.6z"/>
	<path class="st3" d="M121.7,252.8c0-4-4.6-7.2-10.3-7.2s-10.3,3.2-10.3,7.2s4.6,7.2,10.3,7.2c1.5,0,2.9-0.2,4.1-0.6l2.5,2.1v-3.2
		C120.2,257,121.7,255,121.7,252.8z"/>
	<path class="st4" d="M226.4,275.3h-149c-1.1,0-1.9-0.9-1.9-1.9l0,0c0-1.1,0.9-1.9,1.9-1.9h149c1.1,0,1.9,0.9,1.9,1.9l0,0
		C228.3,274.5,227.4,275.3,226.4,275.3z"/>
	<path class="st4" d="M120.5,283.1H77.3c-1.1,0-1.9-0.9-1.9-1.9l0,0c0-1.1,0.9-1.9,1.9-1.9h43.1c1.1,0,1.9,0.9,1.9,1.9l0,0
		C122.4,282.2,121.5,283.1,120.5,283.1z"/>
	<circle class="st4" cx="151.9" cy="154.9" r="64.1"/>
	<g>
		<polygon class="st5" points="133.2,113.1 124.7,166.4 147.1,166.4 143.9,113.1 		"/>
		<polygon class="st5" points="170.6,113.1 179,166.4 156.5,166.4 159.8,113.1 		"/>
		<path class="st6" d="M181.5,193.7h-58.9V169c0-6.5,5.3-11.8,11.8-11.8h35.2c6.5,0,11.8,5.3,11.8,11.8V193.7z"/>
		<polyline class="st7" points="141,157.8 141,137 163.4,137 163.4,158.7 151.9,194 141,158.7 141,157.8 		"/>
		<path class="st8" d="M170.7,132.7L170.7,132.7c0,2.5-0.8,4.9-2.4,6.9c0,0-3,3.1-6.4,6.2c-0.2,0.2-0.4,0.3-0.5,0.5
			c-0.1,0.1-0.3,0.3-0.4,0.4c0,0,0,0-0.1,0.1c-3.2,2.9-6.6,5.6-8.1,5.6H151c-1.5,0-4.9-2.7-8.1-5.6c0,0,0,0-0.1-0.1
			c0,0-0.1-0.1-0.1-0.1c-0.1-0.1-0.3-0.3-0.4-0.4c-3.6-3.3-6.8-6.6-6.8-6.6c-1.5-1.9-2.4-4.4-2.4-6.8v-10c0-10,8.1-16.1,18.1-16.1
			h1.4c9.6,0,17.5,5.6,18.1,15.1l0,1.9l0,5.1L170.7,132.7z"/>
		<path class="st9" d="M170.6,121.7c-0.5-9.5-8.4-15.1-18.1-15.1l-0.7,0.9l-0.9-0.9c-10,0-17.9,6.1-17.9,16.1v-8.6
			c0-8.2,8-14.9,16.3-14.9h5c8.2,0,16.2,6.7,16.3,14.9L170.6,121.7z"/>
		<g>
			<path d="M161.6,127.2c-1.3,0-2.4,0.6-3.1,1.5h6.3C163.9,127.8,162.8,127.2,161.6,127.2z"/>
			<path d="M142.3,126.6c-1.3,0-2.4,0.8-3.1,2.1h6.3C144.6,127.4,143.5,126.6,142.3,126.6z"/>
			<polygon points="154.3,123.5 163.8,122.9 164.1,122.9 164.2,123 167.9,126.2 163.6,123.9 164,124 154.8,126.5 			"/>
			<polygon points="148.1,126.4 139.6,122.5 140.2,122.4 135.9,126.2 139.4,121.7 139.6,121.4 140,121.5 149.1,123.6 			"/>
		</g>
		<g>
			<g>
				<path class="st10" d="M156.5,140.1c-3.7-0.5-5.6-0.5-9.2,0c0.7-1.8,1.9-3.1,3.1-3.1c0.7,0,1.2,0.5,1.6,1.2
					c0.4-0.7,0.9-1.2,1.6-1.2C154.6,137,155.8,138.3,156.5,140.1z"/>
				<path class="st11" d="M147.3,140.1c1.1,1.4,2.8,2.2,4.6,2.2c1.9,0,3.5-0.8,4.6-2.2C152.8,139.6,151,139.6,147.3,140.1z"/>
			</g>
		</g>
		<g>
			<path class="st12" d="M170.7,132.7c0,2.5-0.8,4.9-2.4,6.9c0,0-3,3.1-6.4,6.2c-0.2,0.2-0.4,0.3-0.5,0.5c-0.1,0.1-0.3,0.3-0.4,0.4
				V138c0-2,1-3.9,2.8-5l6.9-4.3L170.7,132.7z"/>
			<path class="st12" d="M142.8,138v8.7c0,0-0.1-0.1-0.1-0.1c-0.1-0.1-0.3-0.3-0.4-0.4c-3.6-3.3-6.8-6.6-6.8-6.6
				c-1.5-1.9-2.4-4.4-2.4-6.8v-4l6.9,4.3C141.8,134.1,142.8,135.9,142.8,138z"/>
		</g>
		<g>
			<path class="st9" d="M151.9,99.2c0,0-10.8-5.2-17.1,8.5l13.8-4.4L151.9,99.2z"/>
			<path class="st9" d="M151.9,99.2c0,0,10.8-5.2,17.1,8.5l-13.8-4.4L151.9,99.2z"/>
		</g>
		<path class="st9" d="M166.8,185.8c0.4,0.8,0.9,1.5,1.5,2.1c-0.9-4.7-0.3-9.2,1-13.8c1.3-4.5,3.1-8.9,3.6-13.6
			c0.7-5.5-0.4-11.1-1.7-16.5c-1.2-4.9-0.6-10.1-0.6-15.1c0-4.1,0-8.2,0-12.3c0-0.4-0.4-3.5-0.7-3.7l-4.1-1.6c0,0.2,0,0.4,0,0.5
			c0,11.8,0,21.6,0,33.3c0,7.9,0,15.8,0,23.6C165.9,173.1,164.6,181.2,166.8,185.8z"/>
		<path class="st9" d="M137.4,185.8c-0.4,0.8-0.9,1.5-1.5,2.1c0.9-4.7,0.3-9.2-1-13.8c-1.3-4.5-3.1-8.9-3.6-13.6
			c-0.7-5.5,0.4-11.1,1.7-16.5c1.2-4.9-0.6-9.5-0.6-14.5c0-4.1,1.2-8.8,1.2-12.9c0-0.4-0.4-2.3,0-2.5l4.8-2.8c0,0.2,0,4,0,4.2
			c0,11.8,0,17.9,0,29.7c0,7.9,0,15.8,0,23.6C138.3,173.1,139.6,181.2,137.4,185.8z"/>
		<g>
			<path class="st5" d="M157.5,104.9c2,0.5,3.9,1.5,5.9,2.1c1,0.3,2,0.5,3,0c1-0.4,1.5-1.6,0.9-2.5c1.3,1.4,2.5,3.4,2,5.2
				c-0.5,1.8-2.2,3.1-4,3.3c-1.8,0.2-3.7-0.5-5.1-1.7c-1.4-1.2-2.5-2.7-4-3.8c-1.4-1-2.9-1.4-4.2-0.1
				C153.5,105.3,154.5,104.2,157.5,104.9z"/>
			<path class="st5" d="M146.3,104.9c-2,0.5-3.9,1.5-5.9,2.1c-1,0.3-2,0.5-3,0c-1-0.4-1.5-1.6-0.9-2.5c-1.3,1.4-2.5,3.4-2,5.2
				c0.5,1.8,2.2,3.1,4,3.3c1.8,0.2,3.7-0.5,5.1-1.7c1.4-1.2,2.5-2.7,4-3.8c1.4-1,2.9-1.4,4.2-0.1
				C150.2,105.3,149.2,104.2,146.3,104.9z"/>
		</g>
		<ellipse class="st13" cx="152.2" cy="176.8" rx="3.1" ry="4.2"/>
		<g>
			<path class="st14" d="M151.8,172.2L151.8,172.2L151.8,172.2c-0.3,0-0.6-0.3-0.5-0.7l0,0c0-0.3,0.3-0.6,0.7-0.5l0,0
				c0.3,0,0.6,0.3,0.5,0.7l0,0C152.4,172,152.1,172.2,151.8,172.2L151.8,172.2C151.8,172.2,151.8,172.2,151.8,172.2z M153.6,171.6
				c-0.1-0.3,0.1-0.6,0.4-0.7l0,0c0.3-0.1,0.6,0.1,0.7,0.4l0,0c0.1,0.3-0.1,0.6-0.4,0.7l0,0c0,0-0.1,0-0.1,0l0,0
				C153.9,172,153.7,171.8,153.6,171.6z M149.3,171.4c-0.3-0.1-0.4-0.5-0.3-0.8l0,0c0.1-0.3,0.5-0.4,0.8-0.3l0,0
				c0.3,0.1,0.4,0.5,0.3,0.8l0,0c-0.1,0.2-0.3,0.3-0.5,0.3l0,0C149.5,171.5,149.4,171.5,149.3,171.4z M155.8,170.8
				c-0.2-0.3-0.1-0.6,0.2-0.8l0,0c0.3-0.2,0.6-0.1,0.8,0.2l0,0c0.2,0.3,0.1,0.6-0.2,0.8l0,0c-0.1,0.1-0.2,0.1-0.3,0.1l0,0
				C156.2,171.1,156,171,155.8,170.8z M147.2,170L147.2,170L147.2,170c-0.2-0.2-0.3-0.6-0.1-0.8l0,0c0.2-0.2,0.6-0.3,0.8-0.1l0,0
				c0.2,0.2,0.3,0.6,0.1,0.8l0,0c-0.1,0.1-0.3,0.2-0.5,0.2l0,0C147.5,170.2,147.3,170.1,147.2,170z M157.8,169.5
				c-0.2-0.2-0.2-0.6,0-0.8l0,0c0.2-0.2,0.6-0.2,0.8,0l0,0c0.2,0.2,0.2,0.6,0,0.8l0,0c-0.1,0.1-0.3,0.2-0.4,0.2l0,0
				C158.1,169.6,157.9,169.6,157.8,169.5z M145.5,168.3L145.5,168.3L145.5,168.3c-0.2-0.3-0.2-0.6,0.1-0.8l0,0
				c0.2-0.2,0.6-0.2,0.8,0.1h0c0.2,0.2,0.2,0.6-0.1,0.8l0,0c-0.1,0.1-0.2,0.1-0.4,0.1l0,0C145.8,168.5,145.6,168.4,145.5,168.3z
				 M159.4,167.7c-0.3-0.2-0.3-0.6-0.1-0.8l0,0c0.2-0.3,0.6-0.3,0.8-0.1l0,0c0.3,0.2,0.3,0.6,0.1,0.8l0,0l0,0l0,0
				c-0.1,0.2-0.3,0.2-0.5,0.2l0,0C159.6,167.9,159.5,167.8,159.4,167.7z M144,166.3L144,166.3L144,166.3c-0.2-0.3-0.1-0.6,0.2-0.8
				l0,0c0.3-0.2,0.6-0.1,0.8,0.2h0c0.2,0.3,0.1,0.6-0.2,0.8l0,0c-0.1,0.1-0.2,0.1-0.3,0.1l0,0C144.4,166.6,144.2,166.5,144,166.3z
				 M160.8,165.8c-0.3-0.2-0.4-0.5-0.2-0.8l0,0c0.2-0.3,0.5-0.4,0.8-0.2l0,0c0.3,0.2,0.4,0.5,0.2,0.8l0,0c0,0,0,0,0,0l0,0
				c-0.1,0.2-0.3,0.3-0.5,0.3l0,0C160.9,165.8,160.8,165.8,160.8,165.8z M142.8,164.2L142.8,164.2L142.8,164.2
				c-0.2-0.3,0-0.6,0.3-0.8l0,0c0.3-0.1,0.7,0,0.8,0.3l0,0c0.1,0.3,0,0.6-0.3,0.8l0,0c-0.1,0-0.2,0.1-0.3,0.1l0,0
				C143.1,164.5,142.9,164.4,142.8,164.2z M161.8,163.7c-0.3-0.1-0.5-0.5-0.3-0.8l0,0c0.1-0.3,0.5-0.4,0.8-0.3l0,0
				c0.3,0.1,0.5,0.5,0.3,0.8l0,0c-0.1,0.2-0.3,0.4-0.6,0.4l0,0C162,163.7,161.9,163.7,161.8,163.7z M141.8,162
				c-0.1-0.3,0-0.6,0.3-0.8l0,0c0.3-0.1,0.7,0,0.8,0.3l0,0c0.1,0.3,0,0.7-0.3,0.8l0,0c-0.1,0-0.1,0-0.2,0l0,0
				C142.2,162.3,141.9,162.2,141.8,162z M162.7,161.4c-0.3-0.1-0.5-0.4-0.4-0.7l0,0c0.1-0.3,0.4-0.5,0.7-0.4l0,0
				c0.3,0.1,0.5,0.4,0.4,0.7l0,0c-0.1,0.3-0.3,0.4-0.6,0.4l0,0C162.8,161.5,162.7,161.5,162.7,161.4z M141,159.7
				c-0.1-0.3,0.1-0.6,0.4-0.7l0,0c0.3-0.1,0.6,0.1,0.7,0.4l0,0c0.1,0.3-0.1,0.6-0.4,0.7l0,0c-0.1,0-0.1,0-0.2,0l0,0
				C141.3,160.1,141.1,159.9,141,159.7z M163.3,159.2c-0.3-0.1-0.5-0.4-0.5-0.7l0,0c0.1-0.3,0.4-0.5,0.7-0.5l0,0
				c0.3,0.1,0.5,0.4,0.5,0.7l0,0c0,0,0,0,0,0l0,0c-0.1,0.3-0.3,0.5-0.6,0.5l0,0C163.4,159.2,163.4,159.2,163.3,159.2z M140.4,157.3
				L140.4,157.3L140.4,157.3c-0.1-0.3,0.1-0.6,0.5-0.7l0,0c0.3-0.1,0.6,0.1,0.7,0.5h0c0.1,0.3-0.1,0.6-0.5,0.7l0,0c0,0-0.1,0-0.1,0
				l0,0C140.7,157.8,140.5,157.6,140.4,157.3z"/>
		</g>
	</g>
</g>
<g id="Layer_2">
</g>
</svg>
