<?xml version="1.0" encoding="utf-8"?>
<!-- Generator: Adobe Illustrator 24.0.1, SVG Export Plug-In . SVG Version: 6.00 Build 0)  -->
<svg version="1.1" xmlns="http://www.w3.org/2000/svg" xmlns:xlink="http://www.w3.org/1999/xlink" x="0px" y="0px"
	 viewBox="0 0 300 400" style="enable-background:new 0 0 300 400;" xml:space="preserve">
<style type="text/css">
	.st0{fill:#CDE2E7;}
	.st1{fill:#F08071;}
	.st2{fill:#A7C6CD;}
	.st3{fill:#FFFFFF;}
	.st4{fill:#185A6E;}
	.st5{fill:#D2D0C0;}
	.st6{fill:#D1A682;}
	.st7{fill:#DCB58F;}
	.st8{fill:#E5E4D3;}
	.st9{fill:#DE315B;}
	.st10{fill:#F05171;}
	.st11{fill:#347AB3;}
	.st12{fill:#3D3D3D;}
	.st13{fill:#628FBE;}
</style>
<g id="Layer_1">
	<path class="st0" d="M236.8,396.1H66.9c-15,0-27.2-12.3-27.2-27.2V33.3c0-14.9,12.2-27.2,27.2-27.2h169.9
		c14.9,0,27.2,12.3,27.2,27.2v335.6C264,383.8,251.7,396.1,236.8,396.1z"/>
	<rect x="62.5" y="301.1" class="st1" width="178.6" height="40.7"/>
	<path class="st2" d="M173,40.1h-42.4c-2.1,0-3.9-1.7-3.9-3.9l0,0c0-2.1,1.7-3.9,3.9-3.9H173c2.1,0,3.9,1.7,3.9,3.9l0,0
		C176.9,38.4,175.2,40.1,173,40.1z"/>
	<circle class="st3" cx="129.4" cy="321.4" r="4.4"/>
	<circle class="st3" cx="151.9" cy="321.4" r="4.4"/>
	<circle class="st3" cx="174.3" cy="321.4" r="4.4"/>
	<path class="st1" d="M92.4,247.6c-1.7-3.3-5.9-1.1-7.7,1.5c-0.1,0.2-0.3,0.5-0.4,0.8c-0.1-0.3-0.3-0.6-0.4-0.8
		c-1.8-2.6-6.1-4.8-7.7-1.5c-2.8,5.5,7.3,13.2,8.2,13.6C85.1,260.7,95.2,253.1,92.4,247.6z"/>
	<path class="st3" d="M121.7,252.8c0-4-4.6-7.2-10.3-7.2s-10.3,3.2-10.3,7.2s4.6,7.2,10.3,7.2c1.5,0,2.9-0.2,4.1-0.6l2.5,2.1v-3.2
		C120.2,257,121.7,255,121.7,252.8z"/>
	<path class="st4" d="M226.4,275.3h-149c-1.1,0-1.9-0.9-1.9-1.9l0,0c0-1.1,0.9-1.9,1.9-1.9h149c1.1,0,1.9,0.9,1.9,1.9l0,0
		C228.3,274.5,227.4,275.3,226.4,275.3z"/>
	<path class="st4" d="M120.5,283.1H77.3c-1.1,0-1.9-0.9-1.9-1.9l0,0c0-1.1,0.9-1.9,1.9-1.9h43.1c1.1,0,1.9,0.9,1.9,1.9l0,0
		C122.4,282.2,121.5,283.1,120.5,283.1z"/>
	<circle class="st4" cx="151.9" cy="154.9" r="64.1"/>
	<g>
		<g>
			<path class="st5" d="M147.8,157.9l-18.2-25.7c-0.2,3-2.8,14.5-3.9,16.8c-1.6,3.4-4.8,7.1-4.5,11c0.3,2.6,1.5,4.9,2.5,7.3
				c1,2.4,1.9,4.9,1.6,7.5c-0.6,4.2-4.4,7.1-7.1,10.4c-2.4,3-3.8,6.9-3.3,10.7h17.6c1.3-2.3,2.9-5.3,5.4-6.5
				c2.3-1.1,4.4-0.9,6.7-2.6c4.1-3,6.8-7.3,7-12.4C151.9,168.7,149.8,163.2,147.8,157.9z"/>
			<path class="st5" d="M154.9,157.9l18-25.7c0.2,3,3,14.5,4.1,16.8c1.6,3.4,4.8,7.1,4.5,11c-0.3,2.6-1.5,4.9-2.5,7.3
				c-1,2.4-1.9,4.9-1.6,7.5c0.6,4.2,4.4,7.1,7.1,10.4c2.4,3,3.8,6.9,3.3,10.7h-17.6c-1.3-2.3-2.9-5.3-5.4-6.5
				c-2.3-1.1-4.4-0.9-6.7-2.6c-4.1-3-6.8-7.3-7-12.4C150.8,168.7,152.9,163.2,154.9,157.9z"/>
			<rect x="143.6" y="156.5" class="st6" width="15.3" height="18.2"/>
			<path class="st7" d="M173.4,139.6c0,16.4-12,24.2-18.3,27.1c-2.4,1.1-5.3,1.1-7.7-0.1c-6.3-3.1-18.4-11-18.4-27
				c0-15.8,9.9-24.4,22.2-24.4C163.5,115.2,173.4,123.8,173.4,139.6z"/>
			<g>
				<path class="st8" d="M127.7,141.8c8.3-3.9,11.6-10.7,23.3-16.4v-10.2C135.3,110.9,124.3,126.1,127.7,141.8z"/>
			</g>
			<g>
				<path class="st8" d="M173.7,142.3c-7.5-5.1-10.7-11.3-22.4-17v-10.2C167,110.9,177,126.6,173.7,142.3z"/>
			</g>
			<g>
				<path class="st9" d="M155.8,157.6h-9.1c0.7-1.6,1.9-2.6,3-2.6c0.7,0,1.2,0.4,1.5,1.1c0.4-0.6,0.9-1.1,1.5-1.1
					C153.9,154.9,155.1,156,155.8,157.6z"/>
				<path class="st10" d="M146.7,157.5c1.1,1.2,2.7,1.9,4.5,1.9c1.8,0,3.5-0.8,4.5-1.9H146.7z"/>
			</g>
			<g>
				<g>
					<g>
						<ellipse class="st11" cx="160.2" cy="146.4" rx="1.8" ry="2.1"/>
						<path class="st12" d="M160.2,144.3c-0.6,0-1.2,0.4-1.5,0.9h3.9C162.1,144.7,160.9,144.3,160.2,144.3z"/>
						<path class="st3" d="M159.7,146.3c0,0.4-0.3,0.8-0.6,0.8s-0.6-0.3-0.6-0.8s0.3-0.8,0.6-0.8S159.7,145.8,159.7,146.3z"/>
					</g>
					<g>
						<ellipse class="st11" cx="143.4" cy="146.4" rx="1.8" ry="2.1"/>
						<path class="st12" d="M143.4,144.3c0.6,0,1.2,0.4,1.5,0.9H141C141.6,144.7,142.8,144.3,143.4,144.3z"/>
						<path class="st3" d="M141.9,146.3c0,0.4,0.3,0.8,0.6,0.8s0.6-0.3,0.6-0.8s-0.3-0.8-0.6-0.8S141.9,145.8,141.9,146.3z"/>
					</g>
					<path class="st12" d="M145.7,143c0,0-0.1-0.1-0.4-0.2c-0.1-0.1-0.3-0.2-0.4-0.2c-0.1-0.1-0.3-0.2-0.5-0.2
						c-0.2-0.1-0.4-0.2-0.7-0.2c-0.2-0.1-0.5-0.1-0.8-0.1c-0.3,0-0.6,0-0.9,0c-0.3,0-0.6,0.1-0.9,0.1c-1.3,0.3-2.6,0.8-3.6,1.1
						c-1,0.3-1.7,0.5-1.7,0.5s0.6-0.3,1.5-0.9c0.4-0.3,0.9-0.6,1.5-1c0.3-0.2,0.6-0.4,0.9-0.5c0.3-0.2,0.6-0.3,1-0.5
						c0.3-0.2,0.7-0.3,1-0.4c0.4-0.1,0.7-0.2,1.1-0.3c0.4-0.1,0.7-0.1,1.1-0.1c0.4,0,0.7,0,1,0c0.3,0,0.6,0.1,0.9,0.1
						c0.3,0.1,0.4,0.1,0.6,0.1c0.3,0.1,0.5,0.1,0.5,0.1h0c0.7,0.2,1.2,1,1,1.7c-0.2,0.7-1,1.2-1.7,1
						C145.9,143.1,145.8,143,145.7,143z"/>
				</g>
				<path class="st12" d="M155.8,140.2c0,0,0.2,0,0.5-0.1c0.1,0,0.3-0.1,0.6-0.1c0.3,0,0.6-0.1,0.9-0.1c0.3,0,0.6,0,1,0
					c0.4,0,0.7,0.1,1.1,0.2c0.4,0.1,0.7,0.2,1.1,0.4c0.4,0.1,0.7,0.3,1,0.5c0.3,0.2,0.6,0.4,0.9,0.6c0.3,0.2,0.6,0.4,0.8,0.6
					c0.5,0.4,1,0.7,1.4,1c0.8,0.6,1.4,1,1.4,1s-0.7-0.2-1.6-0.6c-1-0.4-2.3-1-3.5-1.3c-0.3-0.1-0.6-0.1-0.9-0.2
					c-0.3,0-0.6-0.1-0.9-0.1c-0.3,0-0.5,0-0.8,0.1c-0.2,0-0.5,0.1-0.7,0.2c-0.2,0-0.3,0.1-0.5,0.2c-0.1,0-0.3,0.1-0.4,0.2
					c-0.3,0.1-0.4,0.2-0.4,0.2c-0.7,0.4-1.5,0.1-1.9-0.6c-0.4-0.7-0.1-1.5,0.6-1.9C155.6,140.3,155.7,140.2,155.8,140.2L155.8,140.2
					z"/>
			</g>
			<g>
				<path class="st7" d="M131.3,143.6c0,0-2.6-2.4-3.5-0.6c-0.9,1.8,2.1,7.7,3.7,8.8C133.1,152.9,131.3,143.6,131.3,143.6z"/>
			</g>
			<g>
				<path class="st8" d="M169.3,142.3c1,4.6-0.6,21.1,3.3,30c-2.4-9.8,1.9-24.7,1.2-29.4c-0.8-5.2-1.8-9.2-7.8-12.6l-5.7,0.6
					C164.3,133.8,168.2,137.4,169.3,142.3z"/>
			</g>
			<path class="st6" d="M176.3,196h-50v-11.5c0-6.7,5.4-12.1,12.1-12.1h25.8c6.7,0,12.1,5.4,12.1,12.1L176.3,196L176.3,196z"/>
			<path class="st13" d="M143.6,172.4L133,186.8v9.2h16.5C149.5,196,141.2,190.5,143.6,172.4z"/>
			<path class="st13" d="M158.9,172.4c2.4,18.1-5.9,23.6-5.9,23.6h16.3v-9.4L158.9,172.4z"/>
		</g>
		<rect x="143.6" y="170.9" class="st12" width="15.3" height="1.5"/>
	</g>
</g>
<g id="Layer_2">
</g>
</svg>
