<?xml version="1.0" encoding="utf-8"?>
<!-- Generator: Adobe Illustrator 24.0.1, SVG Export Plug-In . SVG Version: 6.00 Build 0)  -->
<svg version="1.1" xmlns="http://www.w3.org/2000/svg" xmlns:xlink="http://www.w3.org/1999/xlink" x="0px" y="0px"
	 viewBox="0 0 300 400" style="enable-background:new 0 0 300 400;" xml:space="preserve">
<style type="text/css">
	.st0{fill:#CDE2E7;}
	.st1{fill:#F08071;}
	.st2{fill:#A7C6CD;}
	.st3{fill:#FFFFFF;}
	.st4{fill:#185A6E;}
	.st5{fill:#231F20;}
	.st6{fill:#DCB58F;}
	.st7{fill:#CFA785;}
	.st8{fill:#B63544;}
	.st9{fill:#628FBE;}
</style>
<g id="Layer_1">
	<path class="st0" d="M236.8,396.1H66.9c-15,0-27.2-12.3-27.2-27.2V33.3c0-14.9,12.2-27.2,27.2-27.2h169.9
		c14.9,0,27.2,12.3,27.2,27.2v335.6C264,383.8,251.7,396.1,236.8,396.1z"/>
	<rect x="62.5" y="301.1" class="st1" width="178.6" height="40.7"/>
	<path class="st2" d="M173,40.1h-42.4c-2.1,0-3.9-1.7-3.9-3.9l0,0c0-2.1,1.7-3.9,3.9-3.9H173c2.1,0,3.9,1.7,3.9,3.9l0,0
		C176.9,38.4,175.2,40.1,173,40.1z"/>
	<circle class="st3" cx="129.4" cy="321.4" r="4.4"/>
	<circle class="st3" cx="151.9" cy="321.4" r="4.4"/>
	<circle class="st3" cx="174.3" cy="321.4" r="4.4"/>
	<path class="st1" d="M92.4,247.6c-1.7-3.3-5.9-1.1-7.7,1.5c-0.1,0.2-0.3,0.5-0.4,0.8c-0.1-0.3-0.3-0.6-0.4-0.8
		c-1.8-2.6-6.1-4.8-7.7-1.5c-2.8,5.5,7.3,13.2,8.2,13.6C85.1,260.7,95.2,253.1,92.4,247.6z"/>
	<path class="st3" d="M121.7,252.8c0-4-4.6-7.2-10.3-7.2s-10.3,3.2-10.3,7.2s4.6,7.2,10.3,7.2c1.5,0,2.9-0.2,4.1-0.6l2.5,2.1v-3.2
		C120.2,257,121.7,255,121.7,252.8z"/>
	<path class="st4" d="M226.4,275.3h-149c-1.1,0-1.9-0.9-1.9-1.9l0,0c0-1.1,0.9-1.9,1.9-1.9h149c1.1,0,1.9,0.9,1.9,1.9l0,0
		C228.3,274.5,227.4,275.3,226.4,275.3z"/>
	<path class="st4" d="M120.5,283.1H77.3c-1.1,0-1.9-0.9-1.9-1.9l0,0c0-1.1,0.9-1.9,1.9-1.9h43.1c1.1,0,1.9,0.9,1.9,1.9l0,0
		C122.4,282.2,121.5,283.1,120.5,283.1z"/>
	<circle class="st4" cx="151.9" cy="154.9" r="64.1"/>
	<g id="Layer_2_1_">
		<g>
			<ellipse class="st5" cx="151.1" cy="111.4" rx="7.9" ry="7.3"/>
			<path class="st6" d="M195.5,196h-88.6c0.9-4,2.6-7.7,4.8-11.1c0.6-0.9,1.2-1.7,1.8-2.5c0.4-0.5,0.8-1.1,1.3-1.6
				c1.3-1.5,2.7-3,4.2-4.3c0.4-0.3,0.8-0.7,1.2-1c1.5-1.3,3.2-2.4,4.9-3.5c0.2-0.1,0.5-0.3,0.7-0.4c5.8-3.4,9.3-9.3,9.3-15.6v-3.4
				h32.1v3.4c0,6.3,3.5,12.2,9.3,15.6c0.3,0.2,0.6,0.4,0.9,0.6c1.7,1.1,3.3,2.2,4.9,3.5c0.4,0.3,0.8,0.7,1.3,1.1
				c1.5,1.3,2.9,2.8,4.2,4.3c0.5,0.5,0.9,1.1,1.3,1.7c0.6,0.8,1.2,1.6,1.7,2.5C192.9,188.4,194.5,192.1,195.5,196z"/>
			<g>
				<path class="st5" d="M149.8,189c-0.8,1.7,0,3.9,1.6,4.8c1.6,0.9,3.9,0.3,4.9-1.3c-1,0-2-0.4-2.6-1.2c-0.7-0.7-1-1.7-1-2.7
					c0-0.4,0.1-0.8,0.1-1.2c0-0.8-0.8-1.6-1.5-1C150.6,186.9,150.1,188.3,149.8,189z"/>
				<ellipse class="st5" cx="151.6" cy="183.3" rx="2.7" ry="3.8"/>
				<path class="st6" d="M169.1,144.5l-1.8-0.1l1.1-13.4l2.2,0.2c1.9,0.2,3.2,2.1,2.9,4.1l-0.9,6.1
					C172.3,143.3,170.8,144.6,169.1,144.5z"/>
				<path class="st6" d="M133.5,144.5l1.8-0.1l-1.1-13.4l-2.2,0.2c-1.9,0.2-3.2,2.1-2.9,4.1l0.9,6.1
					C130.3,143.3,131.8,144.6,133.5,144.5z"/>
				<path class="st6" d="M170.8,122.4v18.4l-6,22.6c-0.9,0.6-1.8,1.2-2.8,1.6c-1.4,0.6-3,0.9-4.7,0.9h-12c-1,0-2.8-1-4.6-2.1
					c-1.7-1-3.3-2.1-4.1-2.5l-4.6-21.6l-0.1-0.5v-16.8c0-5.2,2.4-9.7,6.1-12.3c2.1-1.5,4.6-2.4,7.3-2.4h12c0.4,0,0.9,0,1.3,0.1
					c2.2,0.2,4.2,1,6,2.3C168.4,112.7,170.8,117.2,170.8,122.4z"/>
				<path class="st7" d="M170.8,139.7v1.2l-6,22.6c-0.9,0.6-1.8,1.2-2.8,1.6l-2-16.1L170.8,139.7z"/>
				<path class="st7" d="M142.7,148.9l-1.9,15c-1.7-1-3.3-2.1-4.1-2.5l-4.6-21.6L142.7,148.9z"/>
				<path class="st5" d="M164.2,110.8c-2.3,6.1-6.8,9.7-13.5,9.7c-6.6,0-10.2-4-12.5-9.2c2.3-1.5,2.9-3.5,5.9-3.5h13.1
					c0.5,0,1,0,1.4,0.1C161.1,108.1,162.2,109.5,164.2,110.8z"/>
				<g>
					<path class="st5" d="M158.6,107.8l-0.3,4.3c0,0,5.1,4.4,8.2,11c2.5,5.4,3.4,13.7,3.4,13.7s2.5,23.4-18.5,23.5v20.2
						c1-1,5.6-5.5,9.6-8.1c7.3-4.7,9.8-20.2,9.8-28.3v-21.7C170.8,114.8,165.4,108.5,158.6,107.8z"/>
					<path class="st5" d="M144.2,107.8l0.3,4.3c0,0-5.1,4.4-8.2,11c-2.5,5.4-3.4,13.7-3.4,13.7s-2.5,23.4,18.5,23.5v20.2
						c-1-1-5.6-5.4-9.6-8.1c-8-5.4-9.8-20.2-9.8-28.3v-21.7C132,114.8,137.3,108.5,144.2,107.8z"/>
					<ellipse class="st5" cx="151.1" cy="161.4" rx="2.7" ry="4.9"/>
					<path class="st8" d="M155.3,153c0,1-1.8,1.9-3.9,1.9c-2.2,0-3.9-0.8-3.9-1.9c0-1,1.8-1.9,3.9-1.9S155.3,152,155.3,153z"/>
					<g>
						<path class="st5" d="M151.5,171.2c-5.1,0-9.3-4.9-9.3-10.9c0-6,4.2-10.9,9.3-10.9c5.1,0,9.3,4.9,9.3,10.9
							C160.9,166.3,156.7,171.2,151.5,171.2z M151.5,152.3c-3.6,0-6.5,3.6-6.5,8s2.9,8,6.5,8c3.6,0,6.5-3.6,6.5-8
							C158,155.9,155.1,152.3,151.5,152.3z"/>
					</g>
				</g>
				<g>
					<g>
						<path class="st5" d="M165.8,140.3c0,2.4-3.7,4.3-6,4.3s-5.5-4.3-5.5-4.3s4.1-3.3,5.5-4.3C161.8,134.6,165.8,132.6,165.8,140.3
							z"/>
						<path class="st3" d="M158.4,141.4c0.5,0.8,1.3,1.3,2.3,1.3c1,0,1.8-0.5,2.3-1.3H158.4z"/>
					</g>
					<g>
						<path class="st5" d="M136.8,140.3c0,2.4,3.7,4.3,6,4.3s5.5-4.3,5.5-4.3s-4.1-3.3-5.5-4.3C140.9,134.6,136.8,132.6,136.8,140.3
							z"/>
						<path class="st3" d="M144.2,141.4c-0.5,0.8-1.3,1.3-2.3,1.3c-1,0-1.8-0.5-2.3-1.3H144.2z"/>
					</g>
				</g>
				<rect x="150.2" y="179.2" class="st9" width="2.7" height="1.2"/>
				<rect x="150.2" y="186.5" class="st9" width="2.7" height="1.3"/>
			</g>
			<path class="st9" d="M182.3,175.6L163,190.2l14.5-18.1C179.2,173.1,180.8,174.3,182.3,175.6z"/>
			<path class="st9" d="M187.8,180.9l-13,8.5l8.8-12.8C185.1,178,186.5,179.4,187.8,180.9z"/>
			<path class="st9" d="M190.8,185l-6.5,3.9l4.7-6.4C189.7,183.4,190.3,184.2,190.8,185z"/>
			<path class="st9" d="M113.4,182.4l4.9,6.6l-6.7-4C112.2,184,112.8,183.2,113.4,182.4z"/>
			<path class="st9" d="M118.9,176.5l9,12.9l-13.2-8.6C115.9,179.3,117.4,177.8,118.9,176.5z"/>
			<path class="st9" d="M139.6,190.2l-19.5-14.7c1.5-1.3,3.2-2.4,4.9-3.5L139.6,190.2z"/>
		</g>
	</g>
</g>
<g id="Layer_2">
</g>
</svg>
