<?xml version="1.0" encoding="utf-8"?>
<!-- Generator: Adobe Illustrator 24.0.1, SVG Export Plug-In . SVG Version: 6.00 Build 0)  -->
<svg version="1.1" xmlns="http://www.w3.org/2000/svg" xmlns:xlink="http://www.w3.org/1999/xlink" x="0px" y="0px"
	 viewBox="0 0 300 400" style="enable-background:new 0 0 300 400;" xml:space="preserve">
<style type="text/css">
	.st0{fill:#CDE2E7;}
	.st1{fill:#F08071;}
	.st2{fill:#A7C6CD;}
	.st3{fill:#FFFFFF;}
	.st4{fill:#185A6E;}
	.st5{fill:#9E5B2D;}
	.st6{fill:#7C441D;}
	.st7{fill:#010101;}
	.st8{fill:#683615;}
	.st9{fill:#8A4C21;}
	.st10{fill:#767371;}
	.st11{fill:#454240;}
</style>
<g id="Layer_1">
	<path class="st0" d="M236.8,396.1H66.9c-15,0-27.2-12.3-27.2-27.2V33.3c0-14.9,12.2-27.2,27.2-27.2h169.9
		c14.9,0,27.2,12.3,27.2,27.2v335.6C264,383.8,251.7,396.1,236.8,396.1z"/>
	<rect x="62.5" y="301.1" class="st1" width="178.6" height="40.7"/>
	<path class="st2" d="M173,40.1h-42.4c-2.1,0-3.9-1.7-3.9-3.9l0,0c0-2.1,1.7-3.9,3.9-3.9H173c2.1,0,3.9,1.7,3.9,3.9l0,0
		C176.9,38.4,175.2,40.1,173,40.1z"/>
	<circle class="st3" cx="129.4" cy="321.4" r="4.4"/>
	<circle class="st3" cx="151.9" cy="321.4" r="4.4"/>
	<circle class="st3" cx="174.3" cy="321.4" r="4.4"/>
	<path class="st1" d="M92.4,247.6c-1.7-3.3-5.9-1.1-7.7,1.5c-0.1,0.2-0.3,0.5-0.4,0.8c-0.1-0.3-0.3-0.6-0.4-0.8
		c-1.8-2.6-6.1-4.8-7.7-1.5c-2.8,5.5,7.3,13.2,8.2,13.6C85.1,260.7,95.2,253.1,92.4,247.6z"/>
	<path class="st3" d="M121.7,252.8c0-4-4.6-7.2-10.3-7.2s-10.3,3.2-10.3,7.2s4.6,7.2,10.3,7.2c1.5,0,2.9-0.2,4.1-0.6l2.5,2.1v-3.2
		C120.2,257,121.7,255,121.7,252.8z"/>
	<path class="st4" d="M226.4,275.3h-149c-1.1,0-1.9-0.9-1.9-1.9l0,0c0-1.1,0.9-1.9,1.9-1.9h149c1.1,0,1.9,0.9,1.9,1.9l0,0
		C228.3,274.5,227.4,275.3,226.4,275.3z"/>
	<path class="st4" d="M120.5,283.1H77.3c-1.1,0-1.9-0.9-1.9-1.9l0,0c0-1.1,0.9-1.9,1.9-1.9h43.1c1.1,0,1.9,0.9,1.9,1.9l0,0
		C122.4,282.2,121.5,283.1,120.5,283.1z"/>
	<circle class="st4" cx="151.9" cy="154.9" r="64.1"/>
	<g>
		<path class="st5" d="M186.9,196h-70.8v-21.3c0-4.6,3.9-8.3,8.7-8.3h53.3c4.8,0,8.7,3.7,8.7,8.3L186.9,196L186.9,196z"/>
		<rect x="137.7" y="142.6" class="st6" width="27.6" height="31.5"/>
		<g>
			<path class="st5" d="M169.7,137L169.7,137c-1.7-0.2-2.9-1.7-2.6-3.3l1.1-7.2c0.2-1.6,1.8-2.7,3.5-2.5l0,0
				c1.7,0.2,2.9,1.7,2.6,3.3l-1.1,7.2C173,136.1,171.4,137.2,169.7,137z"/>
			<path class="st5" d="M132.6,137L132.6,137c-1.7,0.1-3.2-1.1-3.4-2.7l-0.7-7.2c-0.2-1.6,1.1-3.1,2.8-3.2l0,0
				c1.7-0.1,3.2,1.1,3.4,2.7l0.7,7.2C135.5,135.4,134.3,136.9,132.6,137z"/>
		</g>
		<path class="st5" d="M172.2,121v20.1c0,1.3-0.6,2.6-1.6,3.6l-8.8,7.3l-4.4,3.7c-1.3,1.1-2.8,1.8-4.3,2c-0.9,0.2-1.9,0.2-2.8,0
			c-1.6-0.3-3.1-0.9-4.3-2l-4.4-3.6l-8.9-7.3c-1-0.9-1.6-2.2-1.6-3.6V121c0-3.5,0.8-6.9,2.3-10c1.8-3.8,4.7-6.6,8.3-9
			c6-4,13.9-4,20,0c3.3,2.2,6,4.6,7.8,8c0.2,0.4,0.4,0.7,0.5,1.1C171.4,114.1,172.2,117.5,172.2,121z"/>
		<g>
			<path class="st7" d="M170.2,109.1C170.2,109.2,170.2,109.2,170.2,109.1C170.2,109.2,170.2,109.2,170.2,109.1L170.2,109.1z"/>
		</g>
		<g>
			<path class="st8" d="M157,144.4h-10.8c0.8-2.1,2.3-3.5,3.6-3.5c0.8,0,1.4,0.6,1.8,1.4c0.4-0.9,1-1.4,1.8-1.4
				C154.7,140.9,156.2,142.3,157,144.4z"/>
			<path class="st9" d="M146.2,144.3c1.3,1.8,3.2,3,5.4,3s4.1-1.2,5.4-3H146.2z"/>
		</g>
		<path class="st9" d="M153.1,153.7v4c-1,0.2-2,0.2-3,0v-4c0-0.8,0.7-1.4,1.5-1.4c0.4,0,0.8,0.2,1.1,0.4
			C152.9,153,153.1,153.3,153.1,153.7z"/>
		<g>
			<ellipse class="st9" cx="153.9" cy="135.4" rx="1.2" ry="1.3"/>
			<path class="st9" d="M150.5,135.4c0,0.7-0.5,1.3-1.2,1.3c-0.7,0-1.2-0.6-1.2-1.3c0-0.7,0.5-1.3,1.2-1.3
				C150,134.1,150.5,134.7,150.5,135.4z"/>
		</g>
		<g>
			<g>
				<polygon class="st7" points="157.9,128.9 159.5,127 163.7,129.1 				"/>
				<polygon class="st7" points="154.4,124.6 155.7,127.6 162.4,125.4 167.7,128.4 162.4,123.2 				"/>
			</g>
			<g>
				<polygon class="st7" points="145.3,128.9 143.7,127 139.5,129.1 				"/>
				<polygon class="st7" points="148.8,124.6 147.5,127.6 140.8,125.4 135.5,128.4 140.8,123.2 				"/>
			</g>
		</g>
		<path class="st9" d="M172.2,129.1v12.1c0,1.3-0.6,2.6-1.6,3.6l-8.8,7.3v-9.2c0-2,0.8-3.9,2.2-5.4L172.2,129.1z"/>
		<path class="st9" d="M141.5,142.7v9.3l-8.9-7.3c-1-0.9-1.6-2.2-1.6-3.6v-12l0.1,0l8.1,8.2C140.7,138.8,141.5,140.7,141.5,142.7z"
			/>
		<path class="st7" d="M172.2,121v12.9l-3.5-7.7l0.5-7.9c0.2-2.6-2-4.8-4.7-4.8h-25.6c-2.7,0-4.9,2.3-4.7,4.9l0.5,6.9l-3.6,8.3
			v-12.4c0-2.7,0.5-5.3,1.4-7.8h-0.1c0.8-2.4,2.1-4.1,3.6-6.2c1.6-2,3.5-3.8,5.7-5.3c6-4,13.9-4,20,0c3.7,2.4,6.5,5.2,8.3,9
			c0,0,0,0.1,0,0.1c0,0,0,0.1,0.1,0.1c0,0,0,0.1,0,0.1c0.1,0.1,0.1,0.3,0.2,0.4c0.1,0.3,0.3,0.6,0.4,0.9c0.1,0.1,0.1,0.3,0.2,0.4
			c0.1,0.1,0.1,0.3,0.2,0.4h0C171.7,115.9,172.2,118.4,172.2,121z"/>
		<polygon class="st10" points="179.8,196 123.2,196 108,166.3 195,166.3 		"/>
		<g>
			<path class="st11" d="M165.3,167.6c-9,6-18.6,6-27.6,0c0-2.6,0-3.9,0-6.5c9.2,0,18.4,0,27.6,0C165.3,163.7,165.3,165,165.3,167.6
				z"/>
		</g>
		<g>
			<polygon class="st11" points="136.4,166.3 134.9,166.3 144.5,196 146,196 			"/>
		</g>
		<g>
			<polygon class="st11" points="166.1,166.3 156.3,196 157.8,196 167.6,166.3 			"/>
		</g>
	</g>
</g>
<g id="Layer_2">
</g>
</svg>
