<?xml version="1.0" encoding="utf-8"?>
<!-- Generator: Adobe Illustrator 24.0.1, SVG Export Plug-In . SVG Version: 6.00 Build 0)  -->
<svg version="1.1" xmlns="http://www.w3.org/2000/svg" xmlns:xlink="http://www.w3.org/1999/xlink" x="0px" y="0px"
	 viewBox="0 0 300 400" style="enable-background:new 0 0 300 400;" xml:space="preserve">
<style type="text/css">
	.st0{fill:#CDE2E7;}
	.st1{fill:#F08071;}
	.st2{fill:#A7C6CD;}
	.st3{fill:#FFFFFF;}
	.st4{fill:#185A6E;}
	.st5{fill:#C66014;}
	.st6{fill:#CE9976;}
	.st7{fill:#17C5CE;}
	.st8{fill:#B2510F;}
	.st9{fill:#DB6F26;}
	.st10{fill:#E2B99A;}
	.st11{fill:#D8AA8B;}
</style>
<g id="Layer_1">
	<path class="st0" d="M236.8,396.1H66.9c-15,0-27.2-12.3-27.2-27.2V33.3c0-14.9,12.2-27.2,27.2-27.2h169.9
		c14.9,0,27.2,12.3,27.2,27.2v335.6C264,383.8,251.7,396.1,236.8,396.1z"/>
	<rect x="62.5" y="301.1" class="st1" width="178.6" height="40.7"/>
	<path class="st2" d="M173,40.1h-42.4c-2.1,0-3.9-1.7-3.9-3.9l0,0c0-2.1,1.7-3.9,3.9-3.9H173c2.1,0,3.9,1.7,3.9,3.9l0,0
		C176.9,38.4,175.2,40.1,173,40.1z"/>
	<circle class="st3" cx="129.4" cy="321.4" r="4.4"/>
	<circle class="st3" cx="151.9" cy="321.4" r="4.4"/>
	<circle class="st3" cx="174.3" cy="321.4" r="4.4"/>
	<path class="st1" d="M92.4,247.6c-1.7-3.3-5.9-1.1-7.7,1.5c-0.1,0.2-0.3,0.5-0.4,0.8c-0.1-0.3-0.3-0.6-0.4-0.8
		c-1.8-2.6-6.1-4.8-7.7-1.5c-2.8,5.5,7.3,13.2,8.2,13.6C85.1,260.7,95.2,253.1,92.4,247.6z"/>
	<path class="st3" d="M121.7,252.8c0-4-4.6-7.2-10.3-7.2s-10.3,3.2-10.3,7.2s4.6,7.2,10.3,7.2c1.5,0,2.9-0.2,4.1-0.6l2.5,2.1v-3.2
		C120.2,257,121.7,255,121.7,252.8z"/>
	<path class="st4" d="M226.4,275.3h-149c-1.1,0-1.9-0.9-1.9-1.9l0,0c0-1.1,0.9-1.9,1.9-1.9h149c1.1,0,1.9,0.9,1.9,1.9l0,0
		C228.3,274.5,227.4,275.3,226.4,275.3z"/>
	<path class="st4" d="M120.5,283.1H77.3c-1.1,0-1.9-0.9-1.9-1.9l0,0c0-1.1,0.9-1.9,1.9-1.9h43.1c1.1,0,1.9,0.9,1.9,1.9l0,0
		C122.4,282.2,121.5,283.1,120.5,283.1z"/>
	<circle class="st4" cx="151.9" cy="154.9" r="64.1"/>
	<g>
		<rect x="131.2" y="147" class="st5" width="43.4" height="32.8"/>
		<path class="st6" d="M185.9,190.5c0-10.8-8.8-19.5-19.5-19.5H166c-2.8,0-5.1-2.3-5.1-5.1v-19.3h-17.8v19.3c0,2.8-2.3,5.1-5.1,5.1
			c-10.8,0-19.5,8.8-19.5,19.5v4.4h67.4V190.5z"/>
		<g>
			<path class="st7" d="M138,171c-10.8,0-19.5,8.8-19.5,19.5v4.4h27.6l-7.9-24C138.1,171,138,171,138,171z"/>
			<path class="st7" d="M185.9,190.5c0-10.8-8.8-19.5-19.5-19.5H166l-7,24h26.9V190.5z"/>
			<polygon class="st7" points="166,171 191.6,171 185.9,194.9 			"/>
			<polygon class="st7" points="138.1,171 112.8,171 118.5,194.9 			"/>
		</g>
		<path class="st8" d="M128.4,119.4c0,0-3.2-2.3-3.6-5.8c-0.4-3.5,6.4-3.5,6.4-3.5l1.9,9.3H128.4z"/>
		<path class="st8" d="M174.4,119.4c0,0,3.2-2.3,3.6-5.8c0.4-3.5-6.4-3.5-6.4-3.5l-1.9,9.3H174.4z"/>
		<path class="st9" d="M151.4,108.5c0,0,5.4-6.4,14.9-3.7c9.6,2.7,9.6,15.8,9.6,15.8l-1.9,19.8l-24-16.1L151.4,108.5z"/>
		<path class="st9" d="M152.3,108.5c0,0-5.4-6.4-14.9-3.7c-9.6,2.6-9.6,15.8-9.6,15.8l1.9,19.8l24-16.1L152.3,108.5z"/>
		<path class="st10" d="M128.8,117v28.1c0,4,2.2,7.8,5.6,9.8l14,8c1.9,1.1,4.1,1.1,6,0l14-8c3.5-2,5.6-5.7,5.6-9.8V117H128.8z"/>
		<g>
			<path d="M164.4,134.7c-1.7,0.2-4.3,1.9-5,2.8l7.9-0.9C166.8,134.9,166.1,134.5,164.4,134.7z"/>
			<path d="M139,134.7c1.9,0.2,4.6,1.9,5.4,2.8l-8.5-0.9C136.4,134.9,137.1,134.5,139,134.7z"/>
			<path class="st5" d="M158,131.6c0,0,0.2-0.1,0.6-0.3c0.4-0.2,0.9-0.4,1.6-0.7c1.3-0.6,3.2-1.2,5.1-1.3c1-0.1,2,0.1,2.8,0.4
				c0.9,0.3,1.6,0.7,2.1,1.2c0.6,0.5,0.9,1,1.1,1.4c0.2,0.4,0.2,0.6,0.2,0.6s-0.1-0.2-0.3-0.6c-0.2-0.4-0.6-0.8-1.2-1.2
				s-1.3-0.8-2.1-1.1c-0.9-0.2-1.8-0.2-2.7-0.2c-1.9,0.2-3.5,1-4.8,1.7c-1.2,0.7-2,1.2-2,1.2c-0.3,0.2-0.7,0.1-0.9-0.2
				c-0.2-0.3-0.1-0.7,0.2-0.9C157.9,131.7,157.9,131.6,158,131.6L158,131.6z"/>
			<path class="st5" d="M144.3,132.8c0,0-0.8-0.5-2-1.2c-1.2-0.7-2.9-1.4-4.8-1.7c-0.9-0.1-1.9-0.1-2.7,0.2
				c-0.8,0.2-1.5,0.6-2.1,1.1c-0.6,0.4-0.9,0.9-1.2,1.2c-0.2,0.4-0.3,0.6-0.3,0.6s0.1-0.2,0.2-0.6c0.2-0.4,0.6-0.9,1.1-1.4
				c0.6-0.5,1.2-0.9,2.1-1.2s1.9-0.4,2.8-0.4c2,0.1,3.8,0.7,5.1,1.3c0.7,0.3,1.2,0.6,1.6,0.7c0.4,0.2,0.6,0.3,0.6,0.3l0,0
				c0.3,0.1,0.4,0.5,0.3,0.8C145,132.8,144.7,132.9,144.3,132.8L144.3,132.8z"/>
		</g>
		<path class="st3" d="M143.1,147c1.1,3,4.3,5.2,8.3,5.2c4,0,7.3-2.2,8.3-5.2H143.1z"/>
		<g>
			<path class="st11" d="M168.3,147c-1.2,1.2-3.4,1.6-5.4,0.7c-2.4-1-3.8-3.3-3.2-5.3c0.6,1.5,2.2,3,4.3,3.8
				C165.5,146.9,167,147.1,168.3,147z"/>
			<path class="st11" d="M134.5,147c1.2,1.2,3.4,1.6,5.4,0.7c2.4-1,3.8-3.3,3.2-5.3c-0.6,1.5-2.2,3-4.3,3.8
				C137.4,146.9,135.8,147.1,134.5,147z"/>
		</g>
		<g>
			<path class="st9" d="M182.9,177.8L182.9,177.8c-1.9-2.5-2.1-5.9-0.6-8.2l0,0c1.4-2.2,1.2-5.4-0.6-7.5c-1.7-2-1.9-4.9-0.5-6.8l0,0
				c1.3-1.9,1.1-4.5-0.5-6.2l0,0c-1.5-1.7-1.7-4.1-0.4-5.7l0,0c1.2-1.5,1.1-3.8-0.4-5.3l0,0c-1.4-1.5-1.5-3.5-0.4-4.9l0,0
				c1.2-1.4,1-3.3-0.4-4.6l0,0c-1.3-1.2-1.4-3-0.3-4.3l0,0c1.1-1.2,0.9-2.8-0.3-4l0,0c-0.7-0.6-1.1-1.4-1-2.2
				c-0.1,0.1-0.2,0.2-0.4,0.2c-1.5,1.2-2.7,2.8-4.3,3.7c-0.7,0.4-1.5,0.7-2.4,0.6c-0.1,0-0.1,0-0.2,0c-0.1,0.6-0.4,1.2-0.8,1.7l0,0
				c-1.2,1.2-1.2,3,0,4.3l0,0c1.2,1.3,1.2,3.2,0,4.6l0,0c-1.3,1.4-1.3,3.5,0,4.9l0,0c1.3,1.5,1.4,3.7,0,5.3l0,0
				c-1.4,1.6-1.4,4,0,5.7l0,0c1.4,1.7,1.4,4.4,0,6.2l0,0c-1.5,1.9-1.5,4.8,0,6.8l0,0c1.5,2.1,1.6,5.3,0,7.5l0,0
				c-1.7,2.3-1.7,5.7,0,8.2l0,0c1.7,2.5,1.7,6.4,0,9.1l0,0c-1.4,2.2-1.8,5.3-0.9,8h15c-1.1-2.7-0.9-5.7,0.3-8l0,0
				C185.1,184.2,184.8,180.3,182.9,177.8z"/>
		</g>
		<g>
			<path class="st9" d="M120.8,177.8L120.8,177.8c1.9-2.5,2.1-5.9,0.6-8.2l0,0c-1.4-2.2-1.2-5.4,0.6-7.5c1.7-2,1.9-4.9,0.5-6.8l0,0
				c-1.3-1.9-1.1-4.5,0.5-6.2l0,0c1.5-1.7,1.7-4.1,0.4-5.7l0,0c-1.2-1.5-1.1-3.8,0.4-5.3l0,0c1.4-1.5,1.5-3.5,0.4-4.9l0,0
				c-1.2-1.4-1-3.3,0.4-4.6l0,0c1.3-1.2,1.4-3,0.3-4.3l0,0c-1.1-1.2-0.9-2.8,0.3-4l0,0c0.7-0.6,1.1-1.4,1-2.2
				c0.1,0.1,0.2,0.2,0.4,0.2c1.5,1.2,2.7,2.8,4.3,3.7c0.7,0.4,1.5,0.7,2.4,0.6c0.1,0,0.1,0,0.2,0c0.1,0.6,0.4,1.2,0.8,1.7l0,0
				c1.2,1.2,1.2,3,0,4.3l0,0c-1.2,1.3-1.2,3.2,0,4.6l0,0c1.3,1.4,1.3,3.5,0,4.9l0,0c-1.3,1.5-1.4,3.7,0,5.3l0,0c1.4,1.6,1.4,4,0,5.7
				l0,0c-1.4,1.7-1.4,4.4,0,6.2l0,0c1.5,1.9,1.5,4.8,0,6.8l0,0c-1.5,2.1-1.6,5.3,0,7.5l0,0c1.7,2.3,1.7,5.7,0,8.2l0,0
				c-1.7,2.5-1.7,6.4,0,9.1l0,0c1.4,2.2,1.8,5.3,0.9,8h-14.8c1.1-2.7,0.9-5.7-0.3-8l0,0C118.5,184.2,118.8,180.3,120.8,177.8z"/>
		</g>
		<g>
			<g>
				<path class="st5" d="M162.5,108.3c3.1,1.1,5.7,3.6,8.5,5.5c2.8,1.9,4.9,3,7-0.2c0,4.4,1.1,10.4-3,12.1c-1.8,0.7-5.6,0.1-7.3-0.9
					c-4.4-2.5-6-8.9-11.6-7.9c-1.1,0.2-3.5,1.5-4.7,3c-0.1-2.3-0.3-5.6,0.6-7.7C153.9,108.3,158.9,107,162.5,108.3z"/>
			</g>
			<g>
				<path class="st5" d="M140.3,108.3c-3.1,1.1-5.7,3.6-8.5,5.5c-2.8,1.9-4.9,3-7-0.2c0,4.4-1.1,10.4,3,12.1
					c1.8,0.7,5.6,0.1,7.3-0.9c4.4-2.5,6-8.9,11.6-7.9c1.1,0.2,3.5,1.5,4.7,3c0.1-2.3,0.3-5.6-0.6-7.7C149,108.3,144,107,140.3,108.3
					z"/>
			</g>
		</g>
	</g>
</g>
<g id="Layer_2">
</g>
</svg>
