<?xml version="1.0" encoding="utf-8"?>
<!-- Generator: Adobe Illustrator 24.0.1, SVG Export Plug-In . SVG Version: 6.00 Build 0)  -->
<svg version="1.1" xmlns="http://www.w3.org/2000/svg" xmlns:xlink="http://www.w3.org/1999/xlink" x="0px" y="0px"
	 viewBox="0 0 300 400" style="enable-background:new 0 0 300 400;" xml:space="preserve">
<style type="text/css">
	.st0{fill:#CDE2E7;}
	.st1{fill:#F08071;}
	.st2{fill:#A7C6CD;}
	.st3{fill:#FFFFFF;}
	.st4{fill:#185A6E;}
	.st5{fill:#5B0F1A;}
	.st6{fill:#A11D25;}
	.st7{fill:#D4A585;}
	.st8{fill:#231F20;}
	.st9{fill:#D31E46;}
	.st10{fill:#E2B99A;}
	.st11{fill:#105C8F;}
	.st12{fill:#AC1F23;}
	.st13{fill:#CC2E2E;}
</style>
<g id="Layer_1">
	<path class="st0" d="M236.8,396.1H66.9c-15,0-27.2-12.3-27.2-27.2V33.3c0-14.9,12.2-27.2,27.2-27.2h169.9
		c14.9,0,27.2,12.3,27.2,27.2v335.6C264,383.8,251.7,396.1,236.8,396.1z"/>
	<rect x="62.5" y="301.1" class="st1" width="178.6" height="40.7"/>
	<path class="st2" d="M173,40.1h-42.4c-2.1,0-3.9-1.7-3.9-3.9l0,0c0-2.1,1.7-3.9,3.9-3.9H173c2.1,0,3.9,1.7,3.9,3.9l0,0
		C176.9,38.4,175.2,40.1,173,40.1z"/>
	<circle class="st3" cx="129.4" cy="321.4" r="4.4"/>
	<circle class="st3" cx="151.9" cy="321.4" r="4.4"/>
	<circle class="st3" cx="174.3" cy="321.4" r="4.4"/>
	<path class="st1" d="M92.4,247.6c-1.7-3.3-5.9-1.1-7.7,1.5c-0.1,0.2-0.3,0.5-0.4,0.8c-0.1-0.3-0.3-0.6-0.4-0.8
		c-1.8-2.6-6.1-4.8-7.7-1.5c-2.8,5.5,7.3,13.2,8.2,13.6C85.1,260.7,95.2,253.1,92.4,247.6z"/>
	<path class="st3" d="M121.7,252.8c0-4-4.6-7.2-10.3-7.2s-10.3,3.2-10.3,7.2s4.6,7.2,10.3,7.2c1.5,0,2.9-0.2,4.1-0.6l2.5,2.1v-3.2
		C120.2,257,121.7,255,121.7,252.8z"/>
	<path class="st4" d="M226.4,275.3h-149c-1.1,0-1.9-0.9-1.9-1.9l0,0c0-1.1,0.9-1.9,1.9-1.9h149c1.1,0,1.9,0.9,1.9,1.9l0,0
		C228.3,274.5,227.4,275.3,226.4,275.3z"/>
	<path class="st4" d="M120.5,283.1H77.3c-1.1,0-1.9-0.9-1.9-1.9l0,0c0-1.1,0.9-1.9,1.9-1.9h43.1c1.1,0,1.9,0.9,1.9,1.9l0,0
		C122.4,282.2,121.5,283.1,120.5,283.1z"/>
	<circle class="st4" cx="151.9" cy="154.9" r="64.1"/>
	<g>
		<path class="st5" d="M185.2,195h-67.5l8.8-68.9c1.7-12.6,12.6-22.1,25.3-22.1h0.1c12.9,0,23.8,9.6,25.4,22.4L185.2,195z"/>
		<g>
			<g>
				<path class="st6" d="M177,181.7V195h-51.2v-13.2c0-2.7,0.8-5.2,2.3-7.2c2.3-3.2,6-5.3,10.2-5.3h26.2c4.2,0,8,2.1,10.2,5.3
					C176.1,176.6,177,179.1,177,181.7z"/>
				<path class="st7" d="M174.7,174.6c-4.4,9.3-13.2,15.7-23.3,15.7s-18.9-6.4-23.3-15.7c2.3-3.2,6-5.3,10.2-5.3h26.2
					C168.7,169.2,172.5,171.3,174.7,174.6z"/>
			</g>
			<rect x="143.3" y="144.6" class="st7" width="16.1" height="27.9"/>
			<rect x="143.3" y="163.5" class="st8" width="16.1" height="4.7"/>
			<g>
				<ellipse class="st8" cx="151.4" cy="166" rx="3.8" ry="5.2"/>
				<ellipse class="st9" cx="151.4" cy="165.9" rx="2.8" ry="3.4"/>
			</g>
			<rect x="158.7" y="128.1" class="st6" width="9.2" height="66.9"/>
			<rect x="134.7" y="128.1" class="st6" width="9.2" height="66.9"/>
			<path class="st10" d="M167.9,124.6v20.9c0,2.8-1.4,5.4-3.7,6.9l-4.1,2.7l-4.2,2.8c-2.8,1.8-6.3,1.8-9.1,0l-4.1-2.7l-4.1-2.7
				c-2.3-1.5-3.7-4.1-3.7-6.9v-20.9c0-9.4,6.7-17.1,15-17.1h3.1C161.2,107.5,167.9,115.2,167.9,124.6z"/>
			<path class="st6" d="M153,107.5h-1.1v10.7c9.1,0.5,13.7,6.9,16.1,12.2v-5.8C167.9,115.2,161.2,107.5,153,107.5z"/>
			<path class="st6" d="M149.8,107.5c-8.3,0-15,7.6-15,17.1v5.8c2.5-5.9,7-11.8,16.2-12.2v-10.7C151,107.5,149.8,107.5,149.8,107.5z
				"/>
			<path class="st5" d="M155.2,132.4c0,0,0.2-0.1,0.4-0.4c0.3-0.2,0.7-0.6,1.3-0.9c0.6-0.3,1.3-0.7,2.1-0.9c0.4-0.1,0.8-0.2,1.2-0.2
				l0.3,0l0.3,0c0.2,0,0.4,0,0.7,0c0.4,0.1,0.8,0.2,1.2,0.4c0.2,0.1,0.4,0.2,0.6,0.3c0.2,0.1,0.4,0.2,0.5,0.3
				c0.3,0.2,0.6,0.5,0.8,0.8c0.1,0.1,0.2,0.3,0.3,0.4c0.1,0.1,0.2,0.3,0.3,0.4c0.2,0.3,0.3,0.5,0.4,0.8c0.1,0.2,0.2,0.4,0.2,0.6
				c0.1,0.3,0.1,0.5,0.1,0.5s-0.1-0.2-0.2-0.5c-0.1-0.2-0.2-0.4-0.3-0.6c-0.1-0.2-0.3-0.5-0.4-0.7c-0.1-0.1-0.2-0.2-0.3-0.4
				c-0.1-0.1-0.2-0.2-0.3-0.4c-0.2-0.2-0.5-0.5-0.8-0.7c-0.2-0.1-0.3-0.2-0.5-0.3c-0.2-0.1-0.4-0.2-0.5-0.2
				c-0.4-0.1-0.7-0.2-1.1-0.2c-0.2,0-0.4,0-0.6,0l-0.3,0l-0.3,0.1c-0.4,0.1-0.7,0.2-1.1,0.3c-0.7,0.3-1.2,0.6-1.7,1
				c-0.4,0.4-0.8,0.7-1,1c-0.2,0.3-0.4,0.4-0.4,0.4l0,0c-0.3,0.3-0.7,0.3-0.9,0C154.9,133.2,154.9,132.8,155.2,132.4
				C155.2,132.5,155.2,132.5,155.2,132.4z"/>
			<g>
				<path class="st11" d="M158.8,134.1c0,0.1,0,0.2,0,0.2c0,0.9,0.7,1.5,1.5,1.5c0.8,0,1.5-0.7,1.5-1.5
					C160.8,133.7,159.8,133.8,158.8,134.1z"/>
				<g>
					<path class="st8" d="M163.2,135.8h-0.7c0-0.2-0.1-0.5-0.2-0.7c-0.3-0.7-0.9-1.1-2-1.1c-1.3,0-3.7,1.7-3.7,1.7h-0.1
						c0,0,2.3-2.9,4.3-2.9c1.2,0,1.9,0.7,2.2,1.8C163.1,135.1,163.1,135.4,163.2,135.8z"/>
				</g>
			</g>
			<g>
				<path class="st11" d="M144.5,134.1c0,0.1,0,0.2,0,0.2c0,0.9-0.7,1.5-1.5,1.5c-0.8,0-1.5-0.7-1.5-1.5
					C142.4,133.7,143.5,133.8,144.5,134.1z"/>
				<g>
					<path class="st8" d="M139.9,135.8h0.7c0-0.2,0.1-0.5,0.2-0.7c0.3-0.7,0.9-1.1,2-1.1c1.3,0,3.7,1.7,3.7,1.7h0.1
						c0,0-2.3-2.9-4.3-2.9c-1.2,0-1.9,0.7-2.2,1.8C140,135.1,139.9,135.4,139.9,135.8z"/>
				</g>
			</g>
			<path class="st5" d="M146.9,133.3c0,0-0.2-0.1-0.4-0.4c-0.3-0.2-0.6-0.6-1.1-0.9c-0.5-0.3-1.1-0.7-1.8-0.9
				c-0.2-0.1-0.4-0.1-0.6-0.2l-0.3-0.1c-0.1,0-0.2,0-0.3-0.1c-0.4-0.1-0.8-0.1-1.2-0.1c-0.8,0.1-1.6,0.3-2.2,0.7
				c-0.7,0.4-1.2,0.9-1.6,1.4c-0.4,0.5-0.6,1-0.8,1.3c-0.1,0.3-0.2,0.5-0.2,0.5s0-0.2,0.2-0.6c0.1-0.4,0.3-0.8,0.7-1.4
				c0.3-0.5,0.9-1.1,1.5-1.6c0.7-0.5,1.5-0.8,2.4-0.9c0.4-0.1,0.9-0.1,1.3,0c0.4,0,0.9,0.1,1.2,0.2c0.8,0.2,1.5,0.5,2.1,0.8
				c0.6,0.3,1,0.6,1.4,0.8c0.3,0.2,0.5,0.3,0.5,0.3c0.3,0.2,0.4,0.6,0.2,0.9C147.7,133.5,147.3,133.5,146.9,133.3
				C146.9,133.3,146.9,133.3,146.9,133.3L146.9,133.3z"/>
			<g>
				<g>
					<path class="st12" d="M157.1,148.1h-11.5c1.7-0.6,4.4-1.3,4.4-1.3s0.6,0.4,1.3,0.9c0.7-0.5,1.3-0.9,1.3-0.9
						S155.4,147.6,157.1,148.1z"/>
					<path class="st13" d="M157,148.1c-2.7,0.5-3.5,1.3-5.5,1.3c0,0-0.1,0-0.1,0c0,0-0.1,0-0.1,0c-2,0-2.8-0.7-5.5-1.3H157z"/>
				</g>
			</g>
			<path class="st7" d="M167.9,136v9.5c0,2.8-1.4,5.4-3.7,6.9l-4.1,2.7l-1-7c-0.2-1.2,0.5-2.4,1.7-2.7
				C166.1,143.7,167.9,136,167.9,136z"/>
			<path class="st7" d="M143.7,148.1l-1,7.1l-4.1-2.7c-2.3-1.5-3.7-4.1-3.7-6.9v-9.5l0-0.1c0,0,1.8,7.7,7.2,9.4
				C143.2,145.7,143.9,146.9,143.7,148.1z"/>
		</g>
	</g>
</g>
<g id="Layer_2">
</g>
</svg>
