<?xml version="1.0" encoding="utf-8"?>
<!-- Generator: Adobe Illustrator 24.0.1, SVG Export Plug-In . SVG Version: 6.00 Build 0)  -->
<svg version="1.1" xmlns="http://www.w3.org/2000/svg" xmlns:xlink="http://www.w3.org/1999/xlink" x="0px" y="0px"
	 viewBox="0 0 300 400" style="enable-background:new 0 0 300 400;" xml:space="preserve">
<style type="text/css">
	.st0{fill:#CDE2E7;}
	.st1{fill:#F08071;}
	.st2{fill:#A7C6CD;}
	.st3{fill:#FFFFFF;}
	.st4{fill:#185A6E;}
	.st5{fill:#100C17;}
	.st6{fill:#CB9978;}
	.st7{fill:#E2B99A;}
	.st8{fill:#6E6F71;}
	.st9{fill:#A7A9AC;}
</style>
<g id="Layer_1">
	<path class="st0" d="M236.8,396.1H66.9c-15,0-27.2-12.3-27.2-27.2V33.3c0-14.9,12.2-27.2,27.2-27.2h169.9
		c14.9,0,27.2,12.3,27.2,27.2v335.6C264,383.8,251.7,396.1,236.8,396.1z"/>
	<rect x="62.5" y="301.1" class="st1" width="178.6" height="40.7"/>
	<path class="st2" d="M173,40.1h-42.4c-2.1,0-3.9-1.7-3.9-3.9l0,0c0-2.1,1.7-3.9,3.9-3.9H173c2.1,0,3.9,1.7,3.9,3.9l0,0
		C176.9,38.4,175.2,40.1,173,40.1z"/>
	<circle class="st3" cx="129.4" cy="321.4" r="4.4"/>
	<circle class="st3" cx="151.9" cy="321.4" r="4.4"/>
	<circle class="st3" cx="174.3" cy="321.4" r="4.4"/>
	<path class="st1" d="M92.4,247.6c-1.7-3.3-5.9-1.1-7.7,1.5c-0.1,0.2-0.3,0.5-0.4,0.8c-0.1-0.3-0.3-0.6-0.4-0.8
		c-1.8-2.6-6.1-4.8-7.7-1.5c-2.8,5.5,7.3,13.2,8.2,13.6C85.1,260.7,95.2,253.1,92.4,247.6z"/>
	<path class="st3" d="M121.7,252.8c0-4-4.6-7.2-10.3-7.2s-10.3,3.2-10.3,7.2s4.6,7.2,10.3,7.2c1.5,0,2.9-0.2,4.1-0.6l2.5,2.1v-3.2
		C120.2,257,121.7,255,121.7,252.8z"/>
	<path class="st4" d="M226.4,275.3h-149c-1.1,0-1.9-0.9-1.9-1.9l0,0c0-1.1,0.9-1.9,1.9-1.9h149c1.1,0,1.9,0.9,1.9,1.9l0,0
		C228.3,274.5,227.4,275.3,226.4,275.3z"/>
	<path class="st4" d="M120.5,283.1H77.3c-1.1,0-1.9-0.9-1.9-1.9l0,0c0-1.1,0.9-1.9,1.9-1.9h43.1c1.1,0,1.9,0.9,1.9,1.9l0,0
		C122.4,282.2,121.5,283.1,120.5,283.1z"/>
	<circle class="st4" cx="151.9" cy="154.9" r="64.1"/>
	<g>
		<rect x="137.4" y="147.9" class="st5" width="27.3" height="33.1"/>
		<g>
			<path class="st6" d="M172.9,141.2L172.9,141.2c2.2,0.2,4.2-1.3,4.4-3.5l0.6-5.9c0.2-2.2-1.3-4.2-3.5-4.4l0,0
				c-2.2-0.2-4.2,1.3-4.4,3.5l-0.6,5.9C169.2,139,170.7,140.9,172.9,141.2z"/>
			<path class="st6" d="M129.2,141.2L129.2,141.2c-2.2,0.2-4.2-1.3-4.4-3.5l-0.6-5.9c-0.2-2.2,1.3-4.2,3.5-4.4l0,0
				c2.2-0.2,4.2,1.3,4.4,3.5l0.6,5.9C133,139,131.4,140.9,129.2,141.2z"/>
			<path class="st7" d="M126,117.7l2,32.1l11.8,11.2l5.3,5l1.2,1.2h9.2l1.2-1.2l5.3-5l11.8-11.2c0,0,2-17,2-32.1
				c0-11.2-8.5-20.3-19.1-20.3h-11.9C134.6,97.5,126,106.5,126,117.7z"/>
			<polygon class="st8" points="145.2,166 146.4,167.2 155.6,167.2 156.8,166 159.8,163.3 142.3,163.3 			"/>
			<g>
				<polygon class="st6" points="175.3,136.2 174,149.8 162.2,161 162.2,144 				"/>
				<polygon class="st6" points="139.9,144 139.9,161 128.1,149.8 127.2,136.2 				"/>
			</g>
			<path class="st9" d="M177.4,115.9l-2.1,22.5l-3.8-21.4c-0.5-3.3-3.4-5.8-6.8-5.8h-27.1c-3.4,0-6.3,2.5-6.8,5.8l-3.3,21.9
				l-2.7-22.9c0.8-10.5,9.5-18.8,20-18.8h12.5C167.9,97.1,176.6,105.4,177.4,115.9z"/>
			<path class="st5" d="M177.4,115.9c-0.8-10.5-9.5-18.8-20-18.8h-12.5c-10.6,0-19.2,8.3-20,18.8l0,0.2h6.1c0.8-2.9,3.5-5,6.6-5
				h27.1c3.1,0,5.8,2.1,6.6,5h6.1L177.4,115.9z"/>
			<g>
				<g>
					<path class="st5" d="M148.6,133.7c-5.7-1.9-8.9-1.9-14.6,0c0-1.1,0-1.7,0-2.8c5.7-1.9,8.9-1.9,14.6,0
						C148.6,132,148.6,132.6,148.6,133.7z"/>
				</g>
				<path class="st5" d="M144.2,134.8c-0.5-1.1-1.6-1.9-2.9-1.9c-1.3,0-2.4,0.8-2.9,1.9H144.2z"/>
			</g>
			<g>
				<g>
					<path class="st5" d="M168.8,133.7c-5.7-1.9-8.9-1.9-14.6,0c0-1.1,0-1.7,0-2.8c5.7-1.9,8.9-1.9,14.6,0
						C168.8,132,168.8,132.6,168.8,133.7z"/>
				</g>
				<path class="st5" d="M164.4,134.8c-0.5-1.1-1.6-1.9-2.9-1.9s-2.4,0.8-2.9,1.9H164.4z"/>
			</g>
			<g>
				<polygon class="st5" points="154.1,149.3 149.4,149.3 145.2,151.9 158.3,151.9 				"/>
				<path class="st5" d="M149.3,155.3c0.1,1.8,1.2,3.3,2.4,3.3c1.3,0,2.3-1.4,2.4-3.3H149.3z"/>
			</g>
		</g>
		<path class="st5" d="M190,194.3h-77.9v-7.9c0-7.8,6.4-14.2,14.2-14.2h49.4c7.8,0,14.2,6.4,14.2,14.2V194.3z"/>
	</g>
</g>
<g id="Layer_2">
</g>
</svg>
