<?xml version="1.0" encoding="utf-8"?>
<!-- Generator: Adobe Illustrator 24.0.1, SVG Export Plug-In . SVG Version: 6.00 Build 0)  -->
<svg version="1.1" xmlns="http://www.w3.org/2000/svg" xmlns:xlink="http://www.w3.org/1999/xlink" x="0px" y="0px"
	 viewBox="0 0 300 400" style="enable-background:new 0 0 300 400;" xml:space="preserve">
<style type="text/css">
	.st0{fill:#CDE2E7;}
	.st1{fill:#F08071;}
	.st2{fill:#A7C6CD;}
	.st3{fill:#FFFFFF;}
	.st4{fill:#185A6E;}
	.st5{fill:#C85B2D;}
	.st6{fill:#61A9BE;}
	.st7{fill:#E5958F;}
	.st8{fill:#E9B7AF;}
	.st9{fill:#EAA9A3;}
	.st10{fill:#4E7F63;}
	.st11{fill:#85481F;}
	.st12{fill:#D36C63;}
	.st13{fill:#DD847A;}
</style>
<g id="Layer_1">
	<path class="st0" d="M236.8,396.1H66.9c-15,0-27.2-12.3-27.2-27.2V33.3c0-14.9,12.2-27.2,27.2-27.2h169.9
		c14.9,0,27.2,12.3,27.2,27.2v335.6C264,383.8,251.7,396.1,236.8,396.1z"/>
	<rect x="62.5" y="301.1" class="st1" width="178.6" height="40.7"/>
	<path class="st2" d="M173,40.1h-42.4c-2.1,0-3.9-1.7-3.9-3.9l0,0c0-2.1,1.7-3.9,3.9-3.9H173c2.1,0,3.9,1.7,3.9,3.9l0,0
		C176.9,38.4,175.2,40.1,173,40.1z"/>
	<circle class="st3" cx="129.4" cy="321.4" r="4.4"/>
	<circle class="st3" cx="151.9" cy="321.4" r="4.4"/>
	<circle class="st3" cx="174.3" cy="321.4" r="4.4"/>
	<path class="st1" d="M92.4,247.6c-1.7-3.3-5.9-1.1-7.7,1.5c-0.1,0.2-0.3,0.5-0.4,0.8c-0.1-0.3-0.3-0.6-0.4-0.8
		c-1.8-2.6-6.1-4.8-7.7-1.5c-2.8,5.5,7.3,13.2,8.2,13.6C85.1,260.7,95.2,253.1,92.4,247.6z"/>
	<path class="st3" d="M121.7,252.8c0-4-4.6-7.2-10.3-7.2s-10.3,3.2-10.3,7.2s4.6,7.2,10.3,7.2c1.5,0,2.9-0.2,4.1-0.6l2.5,2.1v-3.2
		C120.2,257,121.7,255,121.7,252.8z"/>
	<path class="st4" d="M226.4,275.3h-149c-1.1,0-1.9-0.9-1.9-1.9l0,0c0-1.1,0.9-1.9,1.9-1.9h149c1.1,0,1.9,0.9,1.9,1.9l0,0
		C228.3,274.5,227.4,275.3,226.4,275.3z"/>
	<path class="st4" d="M120.5,283.1H77.3c-1.1,0-1.9-0.9-1.9-1.9l0,0c0-1.1,0.9-1.9,1.9-1.9h43.1c1.1,0,1.9,0.9,1.9,1.9l0,0
		C122.4,282.2,121.5,283.1,120.5,283.1z"/>
	<circle class="st4" cx="151.9" cy="154.9" r="64.1"/>
	<g>
		<rect x="138.1" y="148" class="st5" width="28.4" height="29.3"/>
		<path class="st6" d="M182.8,194h-61.4v-11.6c0-8.2,6.6-14.8,14.8-14.8H168c8.2,0,14.8,6.6,14.8,14.8L182.8,194L182.8,194z"/>
		<polygon class="st7" points="162.2,171.4 152.7,194 143.2,171.4 143.2,150.8 162.2,150.8 		"/>
		<g>
			<path class="st5" d="M177.2,186.1l-1.7-3.3c-0.8-1.6-0.8-3.4,0-5l1.7-3.3c0.8-1.6,0.8-3.4,0-5l-1.7-3.3c-0.8-1.6-0.8-3.4,0-5
				l1.7-3.3c0.8-1.6,0.8-3.4,0-5l-1.7-3.3c-0.8-1.6-0.8-3.4,0-5l1.7-3.3c0.8-1.6,0.8-3.4,0-5l-1.7-3.3c-0.8-1.6-0.8-3.3,0-4.9
				l1.6-3.3h-14.4l-1.7,3.2c-0.8,1.6-0.8,3.4,0,5l1.7,3.3c0.8,1.6,0.8,3.4,0,5l-1.7,3.3c-0.8,1.6-0.8,3.4,0,5l1.7,3.3
				c0.8,1.6,0.8,3.4,0,5l-1.7,3.3c-0.8,1.6-0.8,3.4,0,5l1.7,3.3c0.8,1.6,0.8,3.4,0,5l-1.7,3.3c-0.8,1.6-0.8,3.4,0,5l1.7,3.3
				c0.8,1.6,0.8,3.3,0,4.9l-1.4,2.9h14.4l1.5-2.9C178,189.5,178,187.7,177.2,186.1z"/>
		</g>
		<g>
			<path class="st5" d="M128.5,186.1l1.5-3.3c0.8-1.6,0.8-3.4,0-5l-1.6-3.3c-0.8-1.6-0.8-3.4,0-5l1.6-3.3c0.8-1.6,0.8-3.4,0-5
				l-1.6-3.3c-0.8-1.6-0.8-3.4,0-5l1.6-3.3c0.8-1.6,0.8-3.4,0-5l-1.6-3.3c-0.8-1.6-0.8-3.4,0-5l1.6-3.3c0.8-1.6,0.8-3.3,0-4.9
				l-1.5-3.3H142l1.5,3.2c0.8,1.6,0.8,3.4,0,5l-1.5,3.3c-0.8,1.6-0.8,3.4,0,5l1.6,3.3c0.8,1.6,0.8,3.4,0,5l-1.6,3.3
				c-0.8,1.6-0.8,3.4,0,5l1.6,3.3c0.8,1.6,0.8,3.4,0,5l-1.6,3.3c-0.8,1.6-0.8,3.4,0,5l1.6,3.3c0.8,1.6,0.8,3.4,0,5l-1.6,3.3
				c-0.8,1.6-0.8,3.3,0,4.9l1.3,2.9h-13.4l-1.4-2.9C127.7,189.5,127.7,187.7,128.5,186.1z"/>
		</g>
		<path class="st5" d="M154.1,109.3c-0.1-0.4-0.3-0.7-0.4-1c-0.2-0.5-0.5-0.9-0.8-1.4c-0.2-0.3-0.5-0.6-0.7-0.9
			c-0.4-0.4-0.8-0.9-1.3-1.2c-5.5-4-14.5-1-20.2,6.7c-5.7,7.7-5.9,17.3-0.4,21.3c5.5,4,14.5,1,20.2-6.7c1-1.3,1.8-2.7,2.4-4.1
			c0.9-2,1.5-4,1.8-5.9C155,113.7,154.8,111.3,154.1,109.3z M153.7,116.7h-1.5V116c0.5,0,1,0,1.5,0.1V116.7z"/>
		<path class="st5" d="M174.8,111.2c-5.5-7.5-14.4-10.4-19.9-6.4c-0.4,0.3-0.9,0.7-1.2,1.1c-0.3,0.3-0.6,0.6-0.8,1
			c-0.3,0.4-0.5,0.8-0.7,1.2c-0.2,0.4-0.4,0.8-0.5,1.2c-0.7,2-0.9,4.3-0.6,6.7c0.3,2,0.9,4,1.8,6c0.6,1.3,1.3,2.5,2.2,3.7
			c5.5,7.5,14.4,10.4,19.9,6.4C180.4,128.1,180.4,118.7,174.8,111.2z M152.2,116.7V116c0.5,0,1,0,1.5,0.1v0.7H152.2z"/>
		<path class="st8" d="M171.4,136.4c0,1.2-0.1,2.3-0.2,3.3c-0.9,9.2-5.7,14.1-10.9,17.2c-2.6,1.6-5.3,2.9-7.8,2.9
			c-1.7,0-4.3-1.3-7-2.8c-4.8-2.7-10.1-6.9-11.5-16v0c-0.2-1.5-0.3-3.1-0.3-4.8c0-13.3,5.8-24.1,18.8-24.1
			C166.3,112.3,171.4,123.1,171.4,136.4z"/>
		<path class="st9" d="M171.2,139.8c-0.9,9.2-5.7,14.1-10.9,17.2c-0.9-16.5,10.7-17.7,10.7-17.7L171.2,139.8z"/>
		<path class="st9" d="M145.5,157.2c-4.8-2.7-10.1-6.9-11.5-16v0l0.8-1.8C134.8,139.4,146.4,140.5,145.5,157.2z"/>
		<path class="st5" d="M171.2,132.4c-2.1-8.5-7.8-15.2-16.5-16.3c-0.3,0-0.6-0.1-1-0.1c-0.5,0-1-0.1-1.5-0.1h0c-0.4,0-0.8,0-1.1,0
			c-8.3,0.7-15.3,9-17.2,16.4c-2-11.3,7.6-22.5,17.8-23.1c0.2,0,0.3,0,0.5,0c0.1,0,0.2,0,0.3,0c0.4,0,0.8,0,1.2,0c0.1,0,0.3,0,0.4,0
			C165.1,110.2,173.7,120.3,171.2,132.4z"/>
		<g>
			<g>
				<path class="st10" d="M163,139.4c0,1-0.8,1.7-1.7,1.7s-1.7-0.8-1.7-1.7c0-1,0.8-1.7,1.7-1.7S163,138.4,163,139.4z"/>
				<path class="st10" d="M145.3,139.4c0,1-0.8,1.7-1.7,1.7c-1,0-1.7-0.8-1.7-1.7c0-1,0.8-1.7,1.7-1.7
					C144.5,137.6,145.3,138.4,145.3,139.4z"/>
			</g>
			<path class="st11" d="M157.8,133.9c0,0,0.2,0,0.5-0.1c0.3,0,0.7-0.1,1.3-0.1c1-0.1,2.5-0.1,3.9,0.1c0.3,0.1,0.7,0.1,1,0.2
				c0.3,0.1,0.7,0.2,1,0.3c0.3,0.2,0.6,0.3,0.8,0.5c0.1,0.1,0.2,0.2,0.4,0.3c0.1,0.1,0.2,0.2,0.3,0.3c0.2,0.2,0.3,0.4,0.5,0.5
				c0.1,0.1,0.1,0.2,0.2,0.2c0,0.1,0.1,0.2,0.1,0.2c0.1,0.3,0.2,0.4,0.2,0.4s-0.1-0.1-0.3-0.4c0-0.1-0.1-0.1-0.1-0.2
				c-0.1-0.1-0.1-0.1-0.2-0.2c-0.1-0.1-0.3-0.3-0.5-0.4c-0.1-0.1-0.2-0.2-0.3-0.2c-0.1-0.1-0.2-0.1-0.4-0.2
				c-0.2-0.1-0.5-0.2-0.8-0.3c-0.3-0.1-0.6-0.1-0.9-0.2c-0.3,0-0.6,0-1-0.1c-1.3,0-2.6,0.2-3.6,0.5c-0.5,0.1-0.9,0.2-1.2,0.3
				c-0.3,0.1-0.4,0.1-0.4,0.1c-0.5,0.1-0.9-0.1-1.1-0.6s0.1-0.9,0.6-1.1C157.7,133.9,157.8,133.9,157.8,133.9z"/>
			<path class="st11" d="M147.1,135.6c0,0-0.2,0-0.4-0.1c-0.3-0.1-0.7-0.2-1.2-0.3c-1-0.2-2.3-0.5-3.6-0.5c-0.3,0-0.7,0-1,0.1
				c-0.3,0-0.6,0.1-0.9,0.2c-0.3,0.1-0.6,0.2-0.8,0.3c-0.1,0.1-0.3,0.1-0.4,0.2c-0.1,0.1-0.2,0.1-0.3,0.2c-0.2,0.1-0.4,0.3-0.5,0.4
				c-0.1,0.1-0.1,0.1-0.2,0.2c-0.1,0.1-0.1,0.1-0.1,0.2c-0.2,0.2-0.3,0.4-0.3,0.4s0.1-0.2,0.2-0.4c0-0.1,0.1-0.1,0.1-0.2
				c0.1-0.1,0.1-0.2,0.2-0.2c0.1-0.2,0.3-0.4,0.5-0.5c0.1-0.1,0.2-0.2,0.3-0.3c0.1-0.1,0.2-0.2,0.4-0.3c0.2-0.2,0.5-0.3,0.8-0.5
				c0.3-0.1,0.6-0.3,1-0.3c0.3-0.1,0.7-0.2,1-0.2c1.4-0.2,2.8-0.2,3.9-0.1c0.5,0,1,0.1,1.3,0.1c0.3,0,0.5,0.1,0.5,0.1
				c0.5,0.1,0.8,0.5,0.8,1c-0.1,0.5-0.5,0.8-1,0.8C147.2,135.6,147.1,135.6,147.1,135.6z"/>
			<circle class="st3" cx="162.3" cy="139.4" r="0.5"/>
			<circle class="st3" cx="144.2" cy="139.4" r="0.5"/>
		</g>
		<g>
			<path class="st12" d="M156.1,149.8h-7.2c0.5-1.4,1.5-2.3,2.4-2.3c0.5,0,0.9,0.4,1.2,0.9c0.3-0.6,0.7-0.9,1.2-0.9
				C154.6,147.5,155.6,148.5,156.1,149.8z"/>
			<path class="st13" d="M148.9,149.8c0.9,1.2,2.1,2,3.6,2s2.7-0.8,3.6-2H148.9z"/>
		</g>
		<g>
			<path class="st8" d="M173.7,137.6c-0.3,2.7-1.6,4.8-2.9,4.6s-2.2-2.4-1.9-5.1c0.3-2.7,1.6-4.8,2.9-4.6
				C173.2,132.7,174,135,173.7,137.6z"/>
			<path class="st8" d="M131.3,137.6c0.3,2.7,1.6,4.8,2.9,4.6s2.2-2.4,1.9-5.1c-0.3-2.7-1.6-4.8-2.9-4.6
				C131.9,132.7,131,135,131.3,137.6z"/>
		</g>
	</g>
</g>
<g id="Layer_2">
</g>
</svg>
